<?xml version="1.0" encoding="us-ascii" standalone="no"?><svg xmlns="http://www.w3.org/2000/svg" xmlns:xlink="http://www.w3.org/1999/xlink" contentStyleType="text/css" height="553px" preserveAspectRatio="none" style="width:1129px;height:553px;background:#FFFFFF;" version="1.1" viewBox="0 0 1129 553" width="1129px" zoomAndPan="magnify"><defs/><g><!--cluster authenticator--><g id="cluster_authenticator"><path d="M8.5,6 L103.5,6 A3.75,3.75 0 0 1 106,8.5 L113,29.6094 L521.5,29.6094 A2.5,2.5 0 0 1 524,32.1094 L524,534.9 A2.5,2.5 0 0 1 521.5,537.4 L8.5,537.4 A2.5,2.5 0 0 1 6,534.9 L6,8.5 A2.5,2.5 0 0 1 8.5,6 " fill="none" style="stroke:#000000;stroke-width:1.5;"/><line style="stroke:#000000;stroke-width:1.5;" x1="6" x2="113" y1="29.6094" y2="29.6094"/><text fill="#000000" font-family="sans-serif" font-size="14" font-weight="bold" lengthAdjust="spacing" textLength="94" x="10" y="22.5332">authenticator</text></g><!--cluster paymentprocessor--><g id="cluster_paymentprocessor"><path d="M576.5,365.06 L708.5,365.06 A3.75,3.75 0 0 1 711,367.56 L718,388.6694 L1119.5,388.6694 A2.5,2.5 0 0 1 1122,391.1694 L1122,543.7 A2.5,2.5 0 0 1 1119.5,546.2 L576.5,546.2 A2.5,2.5 0 0 1 574,543.7 L574,367.56 A2.5,2.5 0 0 1 576.5,365.06 " fill="none" style="stroke:#000000;stroke-width:1.5;"/><line style="stroke:#000000;stroke-width:1.5;" x1="574" x2="718" y1="388.6694" y2="388.6694"/><text fill="#000000" font-family="sans-serif" font-size="14" font-weight="bold" lengthAdjust="spacing" textLength="131" x="578" y="381.5932">paymentprocessor</text></g><!--cluster orderprocessor--><g id="cluster_orderprocessor"><path d="M746.5,195.14 L858.5,195.14 A3.75,3.75 0 0 1 861,197.64 L868,218.7494 L1003.5,218.7494 A2.5,2.5 0 0 1 1006,221.2494 L1006,338.56 A2.5,2.5 0 0 1 1003.5,341.06 L746.5,341.06 A2.5,2.5 0 0 1 744,338.56 L744,197.64 A2.5,2.5 0 0 1 746.5,195.14 " fill="none" style="stroke:#000000;stroke-width:1.5;"/><line style="stroke:#000000;stroke-width:1.5;" x1="744" x2="868" y1="218.7494" y2="218.7494"/><text fill="#000000" font-family="sans-serif" font-size="14" font-weight="bold" lengthAdjust="spacing" textLength="111" x="748" y="211.6732">orderprocessor</text></g><!--cluster gui--><g id="cluster_gui"><path d="M550.5,46.57 L573.5,46.57 A3.75,3.75 0 0 1 576,49.07 L583,70.1794 L717.5,70.1794 A2.5,2.5 0 0 1 720,72.6794 L720,315.6 A2.5,2.5 0 0 1 717.5,318.1 L550.5,318.1 A2.5,2.5 0 0 1 548,315.6 L548,49.07 A2.5,2.5 0 0 1 550.5,46.57 " fill="none" style="stroke:#000000;stroke-width:1.5;"/><line style="stroke:#000000;stroke-width:1.5;" x1="548" x2="583" y1="70.1794" y2="70.1794"/><text fill="#000000" font-family="sans-serif" font-size="14" font-weight="bold" lengthAdjust="spacing" textLength="22" x="552" y="63.1032">gui</text></g><!--class Authenticator--><g id="elem_Authenticator"><rect codeLine="4" fill="#F1F1F1" height="93.9219" id="Authenticator" rx="2.5" ry="2.5" style="stroke:#181818;stroke-width:0.5;" width="486" x="22" y="231.14"/><ellipse cx="218.75" cy="252.4916" fill="#ADD1B2" rx="11" ry="11" style="stroke:#181818;stroke-width:1.0;"/><path d="M221.5156,248.3666 Q221.6719,248.1478 221.8594,248.0384 Q222.0469,247.9291 222.2656,247.9291 Q222.6406,247.9291 222.875,248.1947 Q223.1094,248.4447 223.1094,249.0541 L223.1094,250.5072 Q223.1094,251.1166 222.875,251.3822 Q222.6406,251.6478 222.2656,251.6478 Q221.9219,251.6478 221.7188,251.4447 Q221.5156,251.2572 221.4063,250.7416 Q221.3594,250.3822 221.1719,250.1947 Q220.8438,249.8197 220.2344,249.6009 Q219.625,249.3822 219,249.3822 Q218.2344,249.3822 217.5938,249.7103 Q216.9688,250.0384 216.4688,250.7884 Q215.9844,251.5384 215.9844,252.5697 L215.9844,253.6634 Q215.9844,254.8978 216.875,255.7259 Q217.7656,256.5384 219.3594,256.5384 Q220.2969,256.5384 220.9531,256.2884 Q221.3438,256.1322 221.7656,255.6947 Q222.0313,255.4291 222.1719,255.3509 Q222.3281,255.2728 222.5313,255.2728 Q222.8594,255.2728 223.1094,255.5384 Q223.375,255.7884 223.375,256.1322 Q223.375,256.4759 223.0313,256.8822 Q222.5313,257.4603 221.7344,257.7884 Q220.6563,258.2416 219.3594,258.2416 Q217.8438,258.2416 216.6406,257.6166 Q215.6563,257.1166 214.9688,256.0541 Q214.2813,254.9759 214.2813,253.6947 L214.2813,252.5384 Q214.2813,251.2103 214.8906,250.0697 Q215.5156,248.9134 216.6094,248.3041 Q217.7031,247.6791 218.9375,247.6791 Q219.6719,247.6791 220.3125,247.8509 Q220.9688,248.0072 221.5156,248.3666 Z " fill="#000000"/><text fill="#000000" font-family="sans-serif" font-size="12" font-style="italic" lengthAdjust="spacing" textLength="66" x="248.25" y="248.597">&#171;Singleton&#187;</text><text fill="#000000" font-family="sans-serif" font-size="14" lengthAdjust="spacing" textLength="84" x="239.25" y="265.767">Authenticator</text><line style="stroke:#181818;stroke-width:0.5;" x1="23" x2="507" y1="273.8431" y2="273.8431"/><line style="stroke:#181818;stroke-width:0.5;" x1="23" x2="507" y1="281.8431" y2="281.8431"/><text fill="#000000" font-family="sans-serif" font-size="14" lengthAdjust="spacing" textLength="99" x="28" y="300.3763">-Authenticator()</text><text fill="#000000" font-family="sans-serif" font-size="14" lengthAdjust="spacing" text-decoration="underline" textLength="474" x="28" y="317.9857">+validateCustomerPassword(user : User, typedPassword : String) : boolean</text></g><!--class Hash--><g id="elem_Hash"><rect codeLine="9" fill="#F1F1F1" height="111.5313" id="Hash" rx="2.5" ry="2.5" style="stroke:#181818;stroke-width:0.5;" width="173" x="178.5" y="409.86"/><ellipse cx="229.75" cy="431.2116" fill="#ADD1B2" rx="11" ry="11" style="stroke:#181818;stroke-width:1.0;"/><path d="M232.5156,427.0866 Q232.6719,426.8678 232.8594,426.7584 Q233.0469,426.6491 233.2656,426.6491 Q233.6406,426.6491 233.875,426.9147 Q234.1094,427.1647 234.1094,427.7741 L234.1094,429.2272 Q234.1094,429.8366 233.875,430.1022 Q233.6406,430.3678 233.2656,430.3678 Q232.9219,430.3678 232.7188,430.1647 Q232.5156,429.9772 232.4063,429.4616 Q232.3594,429.1022 232.1719,428.9147 Q231.8438,428.5397 231.2344,428.3209 Q230.625,428.1022 230,428.1022 Q229.2344,428.1022 228.5938,428.4303 Q227.9688,428.7584 227.4688,429.5084 Q226.9844,430.2584 226.9844,431.2897 L226.9844,432.3834 Q226.9844,433.6178 227.875,434.4459 Q228.7656,435.2584 230.3594,435.2584 Q231.2969,435.2584 231.9531,435.0084 Q232.3438,434.8522 232.7656,434.4147 Q233.0313,434.1491 233.1719,434.0709 Q233.3281,433.9928 233.5313,433.9928 Q233.8594,433.9928 234.1094,434.2584 Q234.375,434.5084 234.375,434.8522 Q234.375,435.1959 234.0313,435.6022 Q233.5313,436.1803 232.7344,436.5084 Q231.6563,436.9616 230.3594,436.9616 Q228.8438,436.9616 227.6406,436.3366 Q226.6563,435.8366 225.9688,434.7741 Q225.2813,433.6959 225.2813,432.4147 L225.2813,431.2584 Q225.2813,429.9303 225.8906,428.7897 Q226.5156,427.6334 227.6094,427.0241 Q228.7031,426.3991 229.9375,426.3991 Q230.6719,426.3991 231.3125,426.5709 Q231.9688,426.7272 232.5156,427.0866 Z " fill="#000000"/><text fill="#000000" font-family="sans-serif" font-size="12" font-style="italic" lengthAdjust="spacing" textLength="66" x="248.25" y="427.317">&#171;Singleton&#187;</text><text fill="#000000" font-family="sans-serif" font-size="14" lengthAdjust="spacing" textLength="32" x="265.25" y="444.487">Hash</text><line style="stroke:#181818;stroke-width:0.5;" x1="179.5" x2="350.5" y1="452.5631" y2="452.5631"/><text fill="#000000" font-family="sans-serif" font-size="14" lengthAdjust="spacing" text-decoration="underline" textLength="85" x="184.5" y="471.0963">-SALT: String</text><line style="stroke:#181818;stroke-width:0.5;" x1="179.5" x2="350.5" y1="478.1725" y2="478.1725"/><text fill="#000000" font-family="sans-serif" font-size="14" lengthAdjust="spacing" textLength="47" x="184.5" y="496.7057">-Hash()</text><text fill="#000000" font-family="sans-serif" font-size="14" lengthAdjust="spacing" text-decoration="underline" textLength="161" x="184.5" y="514.3151">+hash(text: String): String</text></g><!--class AccountHandler--><g id="elem_AccountHandler"><rect codeLine="15" fill="#F1F1F1" height="129.1406" id="AccountHandler" rx="2.5" ry="2.5" style="stroke:#181818;stroke-width:0.5;" width="166" x="262" y="42"/><ellipse cx="292.3" cy="63.3516" fill="#ADD1B2" rx="11" ry="11" style="stroke:#181818;stroke-width:1.0;"/><path d="M295.0656,59.2266 Q295.2219,59.0078 295.4094,58.8984 Q295.5969,58.7891 295.8156,58.7891 Q296.1906,58.7891 296.425,59.0547 Q296.6594,59.3047 296.6594,59.9141 L296.6594,61.3672 Q296.6594,61.9766 296.425,62.2422 Q296.1906,62.5078 295.8156,62.5078 Q295.4719,62.5078 295.2688,62.3047 Q295.0656,62.1172 294.9563,61.6016 Q294.9094,61.2422 294.7219,61.0547 Q294.3938,60.6797 293.7844,60.4609 Q293.175,60.2422 292.55,60.2422 Q291.7844,60.2422 291.1438,60.5703 Q290.5188,60.8984 290.0188,61.6484 Q289.5344,62.3984 289.5344,63.4297 L289.5344,64.5234 Q289.5344,65.7578 290.425,66.5859 Q291.3156,67.3984 292.9094,67.3984 Q293.8469,67.3984 294.5031,67.1484 Q294.8938,66.9922 295.3156,66.5547 Q295.5813,66.2891 295.7219,66.2109 Q295.8781,66.1328 296.0813,66.1328 Q296.4094,66.1328 296.6594,66.3984 Q296.925,66.6484 296.925,66.9922 Q296.925,67.3359 296.5813,67.7422 Q296.0813,68.3203 295.2844,68.6484 Q294.2063,69.1016 292.9094,69.1016 Q291.3938,69.1016 290.1906,68.4766 Q289.2063,67.9766 288.5188,66.9141 Q287.8313,65.8359 287.8313,64.5547 L287.8313,63.3984 Q287.8313,62.0703 288.4406,60.9297 Q289.0656,59.7734 290.1594,59.1641 Q291.2531,58.5391 292.4875,58.5391 Q293.2219,58.5391 293.8625,58.7109 Q294.5188,58.8672 295.0656,59.2266 Z " fill="#000000"/><text fill="#000000" font-family="sans-serif" font-size="12" font-style="italic" lengthAdjust="spacing" textLength="66" x="326.7" y="59.457">&#171;Singleton&#187;</text><text fill="#000000" font-family="sans-serif" font-size="14" lengthAdjust="spacing" textLength="100" x="309.7" y="76.627">AccountHandler</text><line style="stroke:#181818;stroke-width:0.5;" x1="263" x2="427" y1="84.7031" y2="84.7031"/><line style="stroke:#181818;stroke-width:0.5;" x1="263" x2="427" y1="92.7031" y2="92.7031"/><text fill="#000000" font-family="sans-serif" font-size="14" lengthAdjust="spacing" textLength="115" x="268" y="111.2363">-AccountHandler()</text><text fill="#000000" font-family="sans-serif" font-size="14" lengthAdjust="spacing" text-decoration="underline" textLength="125" x="268" y="128.8457">+checkUser() : User</text><text fill="#000000" font-family="sans-serif" font-size="14" lengthAdjust="spacing" text-decoration="underline" textLength="118" x="268" y="146.4551">+loginUser() : User</text><text fill="#000000" font-family="sans-serif" font-size="14" lengthAdjust="spacing" text-decoration="underline" textLength="154" x="268" y="164.0645">+createNewUser() : User</text></g><!--class PaymentProcessor--><g id="elem_PaymentProcessor"><rect codeLine="24" fill="#F1F1F1" height="129.1406" id="PaymentProcessor" rx="2.5" ry="2.5" style="stroke:#181818;stroke-width:0.5;" width="516" x="590" y="401.06"/><ellipse cx="784.25" cy="422.4116" fill="#ADD1B2" rx="11" ry="11" style="stroke:#181818;stroke-width:1.0;"/><path d="M787.0156,418.2866 Q787.1719,418.0678 787.3594,417.9584 Q787.5469,417.8491 787.7656,417.8491 Q788.1406,417.8491 788.375,418.1147 Q788.6094,418.3647 788.6094,418.9741 L788.6094,420.4272 Q788.6094,421.0366 788.375,421.3022 Q788.1406,421.5678 787.7656,421.5678 Q787.4219,421.5678 787.2188,421.3647 Q787.0156,421.1772 786.9063,420.6616 Q786.8594,420.3022 786.6719,420.1147 Q786.3438,419.7397 785.7344,419.5209 Q785.125,419.3022 784.5,419.3022 Q783.7344,419.3022 783.0938,419.6303 Q782.4688,419.9584 781.9688,420.7084 Q781.4844,421.4584 781.4844,422.4897 L781.4844,423.5834 Q781.4844,424.8178 782.375,425.6459 Q783.2656,426.4584 784.8594,426.4584 Q785.7969,426.4584 786.4531,426.2084 Q786.8438,426.0522 787.2656,425.6147 Q787.5313,425.3491 787.6719,425.2709 Q787.8281,425.1928 788.0313,425.1928 Q788.3594,425.1928 788.6094,425.4584 Q788.875,425.7084 788.875,426.0522 Q788.875,426.3959 788.5313,426.8022 Q788.0313,427.3803 787.2344,427.7084 Q786.1563,428.1616 784.8594,428.1616 Q783.3438,428.1616 782.1406,427.5366 Q781.1563,427.0366 780.4688,425.9741 Q779.7813,424.8959 779.7813,423.6147 L779.7813,422.4584 Q779.7813,421.1303 780.3906,419.9897 Q781.0156,418.8334 782.1094,418.2241 Q783.2031,417.5991 784.4375,417.5991 Q785.1719,417.5991 785.8125,417.7709 Q786.4688,417.9272 787.0156,418.2866 Z " fill="#000000"/><text fill="#000000" font-family="sans-serif" font-size="12" font-style="italic" lengthAdjust="spacing" textLength="66" x="831.25" y="418.517">&#171;Singleton&#187;</text><text fill="#000000" font-family="sans-serif" font-size="14" lengthAdjust="spacing" textLength="119" x="804.75" y="435.687">PaymentProcessor</text><line style="stroke:#181818;stroke-width:0.5;" x1="591" x2="1105" y1="443.7631" y2="443.7631"/><text fill="#000000" font-family="sans-serif" font-size="14" lengthAdjust="spacing" text-decoration="underline" textLength="195" x="596" y="462.2963">-processor: PaymentProcessor</text><line style="stroke:#181818;stroke-width:0.5;" x1="591" x2="1105" y1="469.3725" y2="469.3725"/><text fill="#000000" font-family="sans-serif" font-size="14" lengthAdjust="spacing" textLength="134" x="596" y="487.9057">-PaymentProcessor()</text><text fill="#000000" font-family="sans-serif" font-size="14" lengthAdjust="spacing" text-decoration="underline" textLength="229" x="596" y="505.5151">+getProcessor(): PaymentProcessor</text><text fill="#000000" font-family="sans-serif" font-size="14" lengthAdjust="spacing" text-decoration="underline" textLength="504" x="596" y="523.1245">+validateCreditCard(number: String, expiration: String, security: String): boolean</text></g><!--class OrderProcessor--><g id="elem_OrderProcessor"><rect codeLine="33" fill="#F1F1F1" height="93.9219" id="OrderProcessor" rx="2.5" ry="2.5" style="stroke:#181818;stroke-width:0.5;" width="231" x="759.5" y="231.14"/><ellipse cx="820.25" cy="252.4916" fill="#ADD1B2" rx="11" ry="11" style="stroke:#181818;stroke-width:1.0;"/><path d="M823.0156,248.3666 Q823.1719,248.1478 823.3594,248.0384 Q823.5469,247.9291 823.7656,247.9291 Q824.1406,247.9291 824.375,248.1947 Q824.6094,248.4447 824.6094,249.0541 L824.6094,250.5072 Q824.6094,251.1166 824.375,251.3822 Q824.1406,251.6478 823.7656,251.6478 Q823.4219,251.6478 823.2188,251.4447 Q823.0156,251.2572 822.9063,250.7416 Q822.8594,250.3822 822.6719,250.1947 Q822.3438,249.8197 821.7344,249.6009 Q821.125,249.3822 820.5,249.3822 Q819.7344,249.3822 819.0938,249.7103 Q818.4688,250.0384 817.9688,250.7884 Q817.4844,251.5384 817.4844,252.5697 L817.4844,253.6634 Q817.4844,254.8978 818.375,255.7259 Q819.2656,256.5384 820.8594,256.5384 Q821.7969,256.5384 822.4531,256.2884 Q822.8438,256.1322 823.2656,255.6947 Q823.5313,255.4291 823.6719,255.3509 Q823.8281,255.2728 824.0313,255.2728 Q824.3594,255.2728 824.6094,255.5384 Q824.875,255.7884 824.875,256.1322 Q824.875,256.4759 824.5313,256.8822 Q824.0313,257.4603 823.2344,257.7884 Q822.1563,258.2416 820.8594,258.2416 Q819.3438,258.2416 818.1406,257.6166 Q817.1563,257.1166 816.4688,256.0541 Q815.7813,254.9759 815.7813,253.6947 L815.7813,252.5384 Q815.7813,251.2103 816.3906,250.0697 Q817.0156,248.9134 818.1094,248.3041 Q819.2031,247.6791 820.4375,247.6791 Q821.1719,247.6791 821.8125,247.8509 Q822.4688,248.0072 823.0156,248.3666 Z " fill="#000000"/><text fill="#000000" font-family="sans-serif" font-size="12" font-style="italic" lengthAdjust="spacing" textLength="66" x="858.25" y="248.597">&#171;Singleton&#187;</text><text fill="#000000" font-family="sans-serif" font-size="14" lengthAdjust="spacing" textLength="101" x="840.75" y="265.767">OrderProcessor</text><line style="stroke:#181818;stroke-width:0.5;" x1="760.5" x2="989.5" y1="273.8431" y2="273.8431"/><line style="stroke:#181818;stroke-width:0.5;" x1="760.5" x2="989.5" y1="281.8431" y2="281.8431"/><text fill="#000000" font-family="sans-serif" font-size="14" lengthAdjust="spacing" textLength="116" x="765.5" y="300.3763">-OrderProcessor()</text><text fill="#000000" font-family="sans-serif" font-size="14" lengthAdjust="spacing" text-decoration="underline" textLength="219" x="765.5" y="317.9857">+processOrder(user : User): Order</text></g><!--class Application--><g id="elem_Application"><rect codeLine="40" fill="#F1F1F1" height="48" id="Application" rx="2.5" ry="2.5" style="stroke:#181818;stroke-width:0.5;" width="101" x="573.5" y="82.57"/><ellipse cx="588.5" cy="98.57" fill="#ADD1B2" rx="11" ry="11" style="stroke:#181818;stroke-width:1.0;"/><path d="M591.2656,94.445 Q591.4219,94.2263 591.6094,94.1169 Q591.7969,94.0075 592.0156,94.0075 Q592.3906,94.0075 592.625,94.2731 Q592.8594,94.5231 592.8594,95.1325 L592.8594,96.5856 Q592.8594,97.195 592.625,97.4606 Q592.3906,97.7263 592.0156,97.7263 Q591.6719,97.7263 591.4688,97.5231 Q591.2656,97.3356 591.1563,96.82 Q591.1094,96.4606 590.9219,96.2731 Q590.5938,95.8981 589.9844,95.6794 Q589.375,95.4606 588.75,95.4606 Q587.9844,95.4606 587.3438,95.7888 Q586.7188,96.1169 586.2188,96.8669 Q585.7344,97.6169 585.7344,98.6481 L585.7344,99.7419 Q585.7344,100.9763 586.625,101.8044 Q587.5156,102.6169 589.1094,102.6169 Q590.0469,102.6169 590.7031,102.3669 Q591.0938,102.2106 591.5156,101.7731 Q591.7813,101.5075 591.9219,101.4294 Q592.0781,101.3513 592.2813,101.3513 Q592.6094,101.3513 592.8594,101.6169 Q593.125,101.8669 593.125,102.2106 Q593.125,102.5544 592.7813,102.9606 Q592.2813,103.5388 591.4844,103.8669 Q590.4063,104.32 589.1094,104.32 Q587.5938,104.32 586.3906,103.695 Q585.4063,103.195 584.7188,102.1325 Q584.0313,101.0544 584.0313,99.7731 L584.0313,98.6169 Q584.0313,97.2888 584.6406,96.1481 Q585.2656,94.9919 586.3594,94.3825 Q587.4531,93.7575 588.6875,93.7575 Q589.4219,93.7575 590.0625,93.9294 Q590.7188,94.0856 591.2656,94.445 Z " fill="#000000"/><text fill="#000000" font-family="sans-serif" font-size="14" lengthAdjust="spacing" textLength="69" x="602.5" y="104.2985">Application</text><line style="stroke:#181818;stroke-width:0.5;" x1="574.5" x2="673.5" y1="114.57" y2="114.57"/><line style="stroke:#181818;stroke-width:0.5;" x1="574.5" x2="673.5" y1="122.57" y2="122.57"/></g><!--class CheckOutScreen--><g id="elem_CheckOutScreen"><rect codeLine="41" fill="#F1F1F1" height="48" id="CheckOutScreen" rx="2.5" ry="2.5" style="stroke:#181818;stroke-width:0.5;" width="140" x="564" y="254.1"/><ellipse cx="579" cy="270.1" fill="#ADD1B2" rx="11" ry="11" style="stroke:#181818;stroke-width:1.0;"/><path d="M581.7656,265.975 Q581.9219,265.7563 582.1094,265.6469 Q582.2969,265.5375 582.5156,265.5375 Q582.8906,265.5375 583.125,265.8031 Q583.3594,266.0531 583.3594,266.6625 L583.3594,268.1156 Q583.3594,268.725 583.125,268.9906 Q582.8906,269.2563 582.5156,269.2563 Q582.1719,269.2563 581.9688,269.0531 Q581.7656,268.8656 581.6563,268.35 Q581.6094,267.9906 581.4219,267.8031 Q581.0938,267.4281 580.4844,267.2094 Q579.875,266.9906 579.25,266.9906 Q578.4844,266.9906 577.8438,267.3188 Q577.2188,267.6469 576.7188,268.3969 Q576.2344,269.1469 576.2344,270.1781 L576.2344,271.2719 Q576.2344,272.5063 577.125,273.3344 Q578.0156,274.1469 579.6094,274.1469 Q580.5469,274.1469 581.2031,273.8969 Q581.5938,273.7406 582.0156,273.3031 Q582.2813,273.0375 582.4219,272.9594 Q582.5781,272.8813 582.7813,272.8813 Q583.1094,272.8813 583.3594,273.1469 Q583.625,273.3969 583.625,273.7406 Q583.625,274.0844 583.2813,274.4906 Q582.7813,275.0688 581.9844,275.3969 Q580.9063,275.85 579.6094,275.85 Q578.0938,275.85 576.8906,275.225 Q575.9063,274.725 575.2188,273.6625 Q574.5313,272.5844 574.5313,271.3031 L574.5313,270.1469 Q574.5313,268.8188 575.1406,267.6781 Q575.7656,266.5219 576.8594,265.9125 Q577.9531,265.2875 579.1875,265.2875 Q579.9219,265.2875 580.5625,265.4594 Q581.2188,265.6156 581.7656,265.975 Z " fill="#000000"/><text fill="#000000" font-family="sans-serif" font-size="14" lengthAdjust="spacing" textLength="108" x="593" y="275.8285">CheckOutScreen</text><line style="stroke:#181818;stroke-width:0.5;" x1="565" x2="703" y1="286.1" y2="286.1"/><line style="stroke:#181818;stroke-width:0.5;" x1="565" x2="703" y1="294.1" y2="294.1"/></g><!--link Application to CheckOutScreen--><g id="link_Application_CheckOutScreen"><path codeLine="44" d="M625.37,130.78 C627.27,163.07 630.7,221.19 632.61,253.62 " fill="none" id="Application-CheckOutScreen" style="stroke:#181818;stroke-width:1.0;"/></g><!--link AccountHandler to Application--><g id="link_AccountHandler_Application"><path codeLine="45" d="M428.37,106.57 C476.64,106.57 524.91,106.57 573.18,106.57 " fill="none" id="AccountHandler-Application" style="stroke:#181818;stroke-width:1.0;"/></g><!--link AccountHandler to Authenticator--><g id="link_AccountHandler_Authenticator"><path codeLine="46" d="M314.98,171.18 C305.63,191 295.5,212.48 286.81,230.87 " fill="none" id="AccountHandler-Authenticator" style="stroke:#181818;stroke-width:1.0;"/></g><!--link CheckOutScreen to PaymentProcessor--><g id="link_CheckOutScreen_PaymentProcessor"><path codeLine="47" d="M661.1,302.6 C689.45,327.17 735.16,366.8 774.29,400.72 " fill="none" id="CheckOutScreen-PaymentProcessor" style="stroke:#181818;stroke-width:1.0;"/></g><!--link CheckOutScreen to OrderProcessor--><g id="link_CheckOutScreen_OrderProcessor"><path codeLine="48" d="M704.13,278.1 C722.49,278.1 740.84,278.1 759.2,278.1 " fill="none" id="CheckOutScreen-OrderProcessor" style="stroke:#181818;stroke-width:1.0;"/></g><!--link Authenticator to Hash--><g id="link_Authenticator_Hash"><path codeLine="49" d="M265,325.44 C265,350.98 265,382.85 265,409.65 " fill="none" id="Authenticator-Hash" style="stroke:#181818;stroke-width:1.0;"/></g><!--link OrderProcessor to PaymentProcessor--><!--SRC=[XLHDJm8n53pJNz5uWYY9PsDC21TDZ9Aideo7qdtkDYpjfdqLaEn_znLPQEiQJsncvdrFSIkbMs75cij6E3T3j6hf4HwaqONw0dxDM2laIbJ0BuJ76ZGgAT3O2xvdeqCGdyKulxtbXT9L0sWqlxiBij4qaOmd15tk7Ge2Eluf6bKAXBbtQDPW5vHpOsmvzWuil-6lz7F5STT2sLE45jIfhYRqjJIc0Q7Pg6EZlgLxuUhXJavbYzdZIvyc424awwmE4C8MJ-NE0L6ncPJ6QxmNkcpWhmKacgoEh46kmfZZoN7UX6vCfVJVjBH0stk2JIRfM1SThnMxDLsWjKQ2Sydz5Z_KegV-MTmfnSsloA3BiMpM2c9gCCM0DIoK2kU2JA7zUWcslyCLXsshBAcDFcCEfBSATz7P8fF4Mo4lWHtQoNCW_jb8gidcF2OzQ68dKoy7BE-ayYf-KctRXCT2O_5zrwFpu9DdZmMT70u4POYbqsccITa6Ff0agHTPPjyWY5yhoweI_-jckSIggWwLqWsnz8-2-F3cMBRgwLkjoXBq-q2TRm00]--></g></svg>