<?xml version="1.0" encoding="us-ascii" standalone="no"?><svg xmlns="http://www.w3.org/2000/svg" xmlns:xlink="http://www.w3.org/1999/xlink" contentStyleType="text/css" height="471px" preserveAspectRatio="none" style="width:835px;height:471px;background:#FFFFFF;" version="1.1" viewBox="0 0 835 471" width="835px" zoomAndPan="magnify"><defs/><g><!--cluster catalogue--><g id="cluster_catalogue"><path d="M8.5,6 L78.5,6 A3.75,3.75 0 0 1 81,8.5 L88,29.6094 L825.5,29.6094 A2.5,2.5 0 0 1 828,32.1094 L828,461.83 A2.5,2.5 0 0 1 825.5,464.33 L8.5,464.33 A2.5,2.5 0 0 1 6,461.83 L6,8.5 A2.5,2.5 0 0 1 8.5,6 " fill="none" style="stroke:#000000;stroke-width:1.5;"/><line style="stroke:#000000;stroke-width:1.5;" x1="6" x2="88" y1="29.6094" y2="29.6094"/><text fill="#000000" font-family="sans-serif" font-size="14" font-weight="bold" lengthAdjust="spacing" textLength="69" x="10" y="22.5332">catalogue</text></g><!--class AbstractCatalogue--><g id="elem_AbstractCatalogue"><rect codeLine="4" fill="#F1F1F1" height="181.9688" id="AbstractCatalogue" rx="2.5" ry="2.5" style="stroke:#181818;stroke-width:0.5;" width="338" x="248" y="42"/><ellipse cx="348.75" cy="63.3516" fill="#B4A7E5" rx="11" ry="11" style="stroke:#181818;stroke-width:1.0;"/><path d="M349.7031,59.9922 L349.7031,66.6484 L351.4219,66.6484 Q352.0313,66.6484 352.2969,66.8828 Q352.5625,67.1172 352.5625,67.5078 Q352.5625,67.8828 352.2969,68.1172 Q352.0313,68.3516 351.4219,68.3516 L346.2813,68.3516 Q345.6719,68.3516 345.4063,68.1172 Q345.1406,67.8828 345.1406,67.4922 Q345.1406,67.1172 345.4063,66.8828 Q345.6719,66.6484 346.2813,66.6484 L348,66.6484 L348,59.9922 L346.2813,59.9922 Q345.6719,59.9922 345.4063,59.7578 Q345.1406,59.5234 345.1406,59.1328 Q345.1406,58.7578 345.4063,58.5234 Q345.6719,58.2891 346.2813,58.2891 L351.4219,58.2891 Q352.0313,58.2891 352.2969,58.5234 Q352.5625,58.7578 352.5625,59.1328 Q352.5625,59.5234 352.2969,59.7578 Q352.0313,59.9922 351.4219,59.9922 L349.7031,59.9922 Z " fill="#000000"/><text fill="#000000" font-family="sans-serif" font-size="12" font-style="italic" lengthAdjust="spacing" textLength="62" x="396.75" y="59.457">&#171;Interface&#187;</text><text fill="#000000" font-family="sans-serif" font-size="14" font-style="italic" lengthAdjust="spacing" textLength="117" x="369.25" y="76.627">AbstractCatalogue</text><rect fill="#FFFFFF" height="17.0938" style="stroke:#181818;stroke-width:1.0;stroke-dasharray:2.0,2.0;" width="9" x="580" y="39"/><text fill="#000000" font-family="sans-serif" font-size="12" font-style="italic" lengthAdjust="spacing" textLength="7" x="581" y="52.457">T</text><line style="stroke:#181818;stroke-width:0.5;" x1="249" x2="585" y1="84.7031" y2="84.7031"/><line style="stroke:#181818;stroke-width:0.5;" x1="249" x2="585" y1="92.7031" y2="92.7031"/><text fill="#000000" font-family="sans-serif" font-size="14" font-style="italic" lengthAdjust="spacing" textLength="70" x="254" y="111.2363">+size() : int</text><text fill="#000000" font-family="sans-serif" font-size="14" font-style="italic" lengthAdjust="spacing" textLength="141" x="254" y="128.8457">+getSourceFile() : File</text><text fill="#000000" font-family="sans-serif" font-size="14" font-style="italic" lengthAdjust="spacing" textLength="196" x="254" y="146.4551">+getCatalogue() : ArrayList&lt;T&gt;</text><text fill="#000000" font-family="sans-serif" font-size="14" font-style="italic" lengthAdjust="spacing" textLength="185" x="254" y="164.0645">+addEntry(item : T) : boolean</text><text fill="#000000" font-family="sans-serif" font-size="14" font-style="italic" lengthAdjust="spacing" textLength="211" x="254" y="181.6738">+findInCatalogue(key : String) : T</text><text fill="#000000" font-family="sans-serif" font-size="14" font-style="italic" lengthAdjust="spacing" textLength="280" x="254" y="199.2832">+readFromFile(jsonFile : File) : ArrayList&lt;T&gt;</text><text fill="#000000" font-family="sans-serif" font-size="14" font-style="italic" lengthAdjust="spacing" textLength="326" x="254" y="216.8926">+writeToFile(jsonFile : File, list : ArrayList&lt;T&gt;) : void</text></g><!--class Catalogue--><g id="elem_Catalogue"><rect codeLine="14" fill="#F1F1F1" height="164.3594" id="Catalogue" rx="2.5" ry="2.5" style="stroke:#181818;stroke-width:0.5;" width="240" x="22" y="283.97"/><ellipse cx="68.25" cy="305.3216" fill="#ADD1B2" rx="11" ry="11" style="stroke:#181818;stroke-width:1.0;"/><path d="M71.0156,301.1966 Q71.1719,300.9778 71.3594,300.8684 Q71.5469,300.7591 71.7656,300.7591 Q72.1406,300.7591 72.375,301.0247 Q72.6094,301.2747 72.6094,301.8841 L72.6094,303.3372 Q72.6094,303.9466 72.375,304.2122 Q72.1406,304.4778 71.7656,304.4778 Q71.4219,304.4778 71.2188,304.2747 Q71.0156,304.0872 70.9063,303.5716 Q70.8594,303.2122 70.6719,303.0247 Q70.3438,302.6497 69.7344,302.4309 Q69.125,302.2122 68.5,302.2122 Q67.7344,302.2122 67.0938,302.5403 Q66.4688,302.8684 65.9688,303.6184 Q65.4844,304.3684 65.4844,305.3997 L65.4844,306.4934 Q65.4844,307.7278 66.375,308.5559 Q67.2656,309.3684 68.8594,309.3684 Q69.7969,309.3684 70.4531,309.1184 Q70.8438,308.9622 71.2656,308.5247 Q71.5313,308.2591 71.6719,308.1809 Q71.8281,308.1028 72.0313,308.1028 Q72.3594,308.1028 72.6094,308.3684 Q72.875,308.6184 72.875,308.9622 Q72.875,309.3059 72.5313,309.7122 Q72.0313,310.2903 71.2344,310.6184 Q70.1563,311.0716 68.8594,311.0716 Q67.3438,311.0716 66.1406,310.4466 Q65.1563,309.9466 64.4688,308.8841 Q63.7813,307.8059 63.7813,306.5247 L63.7813,305.3684 Q63.7813,304.0403 64.3906,302.8997 Q65.0156,301.7434 66.1094,301.1341 Q67.2031,300.5091 68.4375,300.5091 Q69.1719,300.5091 69.8125,300.6809 Q70.4688,300.8372 71.0156,301.1966 Z " fill="#000000"/><text fill="#000000" font-family="sans-serif" font-size="12" font-style="italic" lengthAdjust="spacing" textLength="66" x="88.25" y="301.427">&#171;Singleton&#187;</text><text fill="#000000" font-family="sans-serif" font-size="14" lengthAdjust="spacing" textLength="65" x="88.75" y="318.597">Catalogue</text><rect fill="#FFFFFF" height="17.0938" style="stroke:#181818;stroke-width:1.0;stroke-dasharray:2.0,2.0;" width="72" x="193" y="280.97"/><text fill="#000000" font-family="sans-serif" font-size="12" font-style="italic" lengthAdjust="spacing" textLength="70" x="194" y="294.427">AbstractItem</text><line style="stroke:#181818;stroke-width:0.5;" x1="23" x2="261" y1="326.6731" y2="326.6731"/><text fill="#000000" font-family="sans-serif" font-size="14" lengthAdjust="spacing" text-decoration="underline" textLength="228" x="28" y="345.2063">-SOURCE_CATALOGUE_FILE : File</text><text fill="#000000" font-family="sans-serif" font-size="14" lengthAdjust="spacing" text-decoration="underline" textLength="184" x="28" y="362.8157">-list : ArrayList&lt;AbstractItem&gt;</text><text fill="#000000" font-family="sans-serif" font-size="14" lengthAdjust="spacing" text-decoration="underline" textLength="135" x="28" y="380.4251">-instance : Catalogue</text><line style="stroke:#181818;stroke-width:0.5;" x1="23" x2="261" y1="387.5012" y2="387.5012"/><text fill="#000000" font-family="sans-serif" font-size="14" lengthAdjust="spacing" textLength="80" x="28" y="406.0345">-Catalogue()</text><text fill="#000000" font-family="sans-serif" font-size="14" lengthAdjust="spacing" text-decoration="underline" textLength="168" x="28" y="423.6438">+getInstance() : Catalogue</text><text fill="#000000" font-family="sans-serif" font-size="14" lengthAdjust="spacing" text-decoration="underline" textLength="89" x="28" y="441.2532">+close() : void</text></g><!--class UserDatabase--><g id="elem_UserDatabase"><rect codeLine="23" fill="#F1F1F1" height="164.3594" id="UserDatabase" rx="2.5" ry="2.5" style="stroke:#181818;stroke-width:0.5;" width="240" x="297" y="283.97"/><ellipse cx="352.75" cy="305.3216" fill="#ADD1B2" rx="11" ry="11" style="stroke:#181818;stroke-width:1.0;"/><path d="M355.5156,301.1966 Q355.6719,300.9778 355.8594,300.8684 Q356.0469,300.7591 356.2656,300.7591 Q356.6406,300.7591 356.875,301.0247 Q357.1094,301.2747 357.1094,301.8841 L357.1094,303.3372 Q357.1094,303.9466 356.875,304.2122 Q356.6406,304.4778 356.2656,304.4778 Q355.9219,304.4778 355.7188,304.2747 Q355.5156,304.0872 355.4063,303.5716 Q355.3594,303.2122 355.1719,303.0247 Q354.8438,302.6497 354.2344,302.4309 Q353.625,302.2122 353,302.2122 Q352.2344,302.2122 351.5938,302.5403 Q350.9688,302.8684 350.4688,303.6184 Q349.9844,304.3684 349.9844,305.3997 L349.9844,306.4934 Q349.9844,307.7278 350.875,308.5559 Q351.7656,309.3684 353.3594,309.3684 Q354.2969,309.3684 354.9531,309.1184 Q355.3438,308.9622 355.7656,308.5247 Q356.0313,308.2591 356.1719,308.1809 Q356.3281,308.1028 356.5313,308.1028 Q356.8594,308.1028 357.1094,308.3684 Q357.375,308.6184 357.375,308.9622 Q357.375,309.3059 357.0313,309.7122 Q356.5313,310.2903 355.7344,310.6184 Q354.6563,311.0716 353.3594,311.0716 Q351.8438,311.0716 350.6406,310.4466 Q349.6563,309.9466 348.9688,308.8841 Q348.2813,307.8059 348.2813,306.5247 L348.2813,305.3684 Q348.2813,304.0403 348.8906,302.8997 Q349.5156,301.7434 350.6094,301.1341 Q351.7031,300.5091 352.9375,300.5091 Q353.6719,300.5091 354.3125,300.6809 Q354.9688,300.8372 355.5156,301.1966 Z " fill="#000000"/><text fill="#000000" font-family="sans-serif" font-size="12" font-style="italic" lengthAdjust="spacing" textLength="66" x="385.25" y="301.427">&#171;Singleton&#187;</text><text fill="#000000" font-family="sans-serif" font-size="14" lengthAdjust="spacing" textLength="90" x="373.25" y="318.597">UserDatabase</text><rect fill="#FFFFFF" height="17.0938" style="stroke:#181818;stroke-width:1.0;stroke-dasharray:2.0,2.0;" width="28" x="512" y="280.97"/><text fill="#000000" font-family="sans-serif" font-size="12" font-style="italic" lengthAdjust="spacing" textLength="26" x="513" y="294.427">User</text><line style="stroke:#181818;stroke-width:0.5;" x1="298" x2="536" y1="326.6731" y2="326.6731"/><text fill="#000000" font-family="sans-serif" font-size="14" lengthAdjust="spacing" text-decoration="underline" textLength="228" x="303" y="345.2063">-SOURCE_CATALOGUE_FILE : File</text><text fill="#000000" font-family="sans-serif" font-size="14" lengthAdjust="spacing" text-decoration="underline" textLength="135" x="303" y="362.8157">-list : ArrayList&lt;User&gt;</text><text fill="#000000" font-family="sans-serif" font-size="14" lengthAdjust="spacing" text-decoration="underline" textLength="135" x="303" y="380.4251">-instance : Catalogue</text><line style="stroke:#181818;stroke-width:0.5;" x1="298" x2="536" y1="387.5012" y2="387.5012"/><text fill="#000000" font-family="sans-serif" font-size="14" lengthAdjust="spacing" textLength="105" x="303" y="406.0345">-UserDatabase()</text><text fill="#000000" font-family="sans-serif" font-size="14" lengthAdjust="spacing" text-decoration="underline" textLength="193" x="303" y="423.6438">+getInstance() : UserDatabase</text><text fill="#000000" font-family="sans-serif" font-size="14" lengthAdjust="spacing" text-decoration="underline" textLength="89" x="303" y="441.2532">+close() : void</text></g><!--class OrderDatabase--><g id="elem_OrderDatabase"><rect codeLine="32" fill="#F1F1F1" height="164.3594" id="OrderDatabase" rx="2.5" ry="2.5" style="stroke:#181818;stroke-width:0.5;" width="240" x="572" y="283.97"/><ellipse cx="621.25" cy="305.3216" fill="#ADD1B2" rx="11" ry="11" style="stroke:#181818;stroke-width:1.0;"/><path d="M624.0156,301.1966 Q624.1719,300.9778 624.3594,300.8684 Q624.5469,300.7591 624.7656,300.7591 Q625.1406,300.7591 625.375,301.0247 Q625.6094,301.2747 625.6094,301.8841 L625.6094,303.3372 Q625.6094,303.9466 625.375,304.2122 Q625.1406,304.4778 624.7656,304.4778 Q624.4219,304.4778 624.2188,304.2747 Q624.0156,304.0872 623.9063,303.5716 Q623.8594,303.2122 623.6719,303.0247 Q623.3438,302.6497 622.7344,302.4309 Q622.125,302.2122 621.5,302.2122 Q620.7344,302.2122 620.0938,302.5403 Q619.4688,302.8684 618.9688,303.6184 Q618.4844,304.3684 618.4844,305.3997 L618.4844,306.4934 Q618.4844,307.7278 619.375,308.5559 Q620.2656,309.3684 621.8594,309.3684 Q622.7969,309.3684 623.4531,309.1184 Q623.8438,308.9622 624.2656,308.5247 Q624.5313,308.2591 624.6719,308.1809 Q624.8281,308.1028 625.0313,308.1028 Q625.3594,308.1028 625.6094,308.3684 Q625.875,308.6184 625.875,308.9622 Q625.875,309.3059 625.5313,309.7122 Q625.0313,310.2903 624.2344,310.6184 Q623.1563,311.0716 621.8594,311.0716 Q620.3438,311.0716 619.1406,310.4466 Q618.1563,309.9466 617.4688,308.8841 Q616.7813,307.8059 616.7813,306.5247 L616.7813,305.3684 Q616.7813,304.0403 617.3906,302.8997 Q618.0156,301.7434 619.1094,301.1341 Q620.2031,300.5091 621.4375,300.5091 Q622.1719,300.5091 622.8125,300.6809 Q623.4688,300.8372 624.0156,301.1966 Z " fill="#000000"/><text fill="#000000" font-family="sans-serif" font-size="12" font-style="italic" lengthAdjust="spacing" textLength="66" x="657.75" y="301.427">&#171;Singleton&#187;</text><text fill="#000000" font-family="sans-serif" font-size="14" lengthAdjust="spacing" textLength="98" x="641.75" y="318.597">OrderDatabase</text><rect fill="#FFFFFF" height="17.0938" style="stroke:#181818;stroke-width:1.0;stroke-dasharray:2.0,2.0;" width="33" x="782" y="280.97"/><text fill="#000000" font-family="sans-serif" font-size="12" font-style="italic" lengthAdjust="spacing" textLength="31" x="783" y="294.427">Order</text><line style="stroke:#181818;stroke-width:0.5;" x1="573" x2="811" y1="326.6731" y2="326.6731"/><text fill="#000000" font-family="sans-serif" font-size="14" lengthAdjust="spacing" text-decoration="underline" textLength="228" x="578" y="345.2063">-SOURCE_CATALOGUE_FILE : File</text><text fill="#000000" font-family="sans-serif" font-size="14" lengthAdjust="spacing" text-decoration="underline" textLength="143" x="578" y="362.8157">-list : ArrayList&lt;Order&gt;</text><text fill="#000000" font-family="sans-serif" font-size="14" lengthAdjust="spacing" text-decoration="underline" textLength="135" x="578" y="380.4251">-instance : Catalogue</text><line style="stroke:#181818;stroke-width:0.5;" x1="573" x2="811" y1="387.5012" y2="387.5012"/><text fill="#000000" font-family="sans-serif" font-size="14" lengthAdjust="spacing" textLength="113" x="578" y="406.0345">-OrderDatabase()</text><text fill="#000000" font-family="sans-serif" font-size="14" lengthAdjust="spacing" text-decoration="underline" textLength="201" x="578" y="423.6438">+getInstance() : OrderDatabase</text><text fill="#000000" font-family="sans-serif" font-size="14" lengthAdjust="spacing" text-decoration="underline" textLength="89" x="578" y="441.2532">+close() : void</text></g><!--reverse link AbstractCatalogue to Catalogue--><g id="link_AbstractCatalogue_Catalogue"><path codeLine="41" d="M304.9069,228.2105 C281.7069,247.7105 261.9,264.36 239.13,283.51 " fill="none" id="AbstractCatalogue-backto-Catalogue" style="stroke:#181818;stroke-width:1.0;stroke-dasharray:7.0,7.0;"/><polygon fill="#181818" points="309.5,224.35,300.0367,227.0788,305.6725,227.5671,305.1841,233.2029,309.5,224.35" style="stroke:#181818;stroke-width:1.0;"/></g><!--reverse link AbstractCatalogue to UserDatabase--><g id="link_AbstractCatalogue_UserDatabase"><path codeLine="42" d="M417,230.35 C417,249.85 417,264.36 417,283.51 " fill="none" id="AbstractCatalogue-backto-UserDatabase" style="stroke:#181818;stroke-width:1.0;stroke-dasharray:7.0,7.0;"/><polygon fill="#181818" points="417,224.35,413,233.35,417,229.35,421,233.35,417,224.35" style="stroke:#181818;stroke-width:1.0;"/></g><!--reverse link AbstractCatalogue to OrderDatabase--><g id="link_AbstractCatalogue_OrderDatabase"><path codeLine="43" d="M529.0931,228.2105 C552.2931,247.7105 572.1,264.36 594.87,283.51 " fill="none" id="AbstractCatalogue-backto-OrderDatabase" style="stroke:#181818;stroke-width:1.0;stroke-dasharray:7.0,7.0;"/><polygon fill="#181818" points="524.5,224.35,528.8159,233.2029,528.3275,227.5671,533.9633,227.0788,524.5,224.35" style="stroke:#181818;stroke-width:1.0;"/></g><!--SRC=[jPHVQy8m5CMVsqyHV79iapsF8XHNHq4GrleijsaicJ6H96uuwNTV4gtz9zGNtnBoE_UUSoz4RIdVWuGTmWoK2hMMD3je4cF14_f7q9llxm5leI1eX4434yM1ZD39frmJkG5CK9WfBG7hMVKSf5CK12Y-4jEf4NZUymakQ8cKAJv-Gk_8rEay5KGduY0ncLDsPkoX3rtxEIQK4euBghJftc4XpoEkvN5CDTaPDBLy9WGZm3leXl8yvdNbBJaQDZ5JuOLLfHrU4iZdKkoSrMybk3rS70-u-fN6JYfkALyGCvAEt9Rx4JJtlTBtVC_j2zKphxOGcunk_8cnp8WMl1h_wqbfq1INA5cklcRHUXQcuMBvkOhMytWHrNEkmPwDLfSMIhavSMmZN4rPeB4bDu2ADmkCBnAtlwQefZ0JwlpUYxvIH7uOKGQA1FRokDIk-brfcwO60ZVHUpClPTu8xMwFItqkVrVibg-1t2rsE7ZlTq71PDBiVXjeJ_SsqtPI_WC0]--></g></svg>