<?xml version="1.0" encoding="us-ascii" standalone="no"?><svg xmlns="http://www.w3.org/2000/svg" xmlns:xlink="http://www.w3.org/1999/xlink" contentStyleType="text/css" height="974px" preserveAspectRatio="none" style="width:883px;height:974px;background:#FFFFFF;" version="1.1" viewBox="0 0 883 974" width="883px" zoomAndPan="magnify"><defs/><g><!--cluster customer--><g id="cluster_customer"><path d="M8.5,6 L75.5,6 A3.75,3.75 0 0 1 78,8.5 L85,29.6094 L401.5,29.6094 A2.5,2.5 0 0 1 404,32.1094 L404,556.79 A2.5,2.5 0 0 1 401.5,559.29 L8.5,559.29 A2.5,2.5 0 0 1 6,556.79 L6,8.5 A2.5,2.5 0 0 1 8.5,6 " fill="none" style="stroke:#000000;stroke-width:1.5;"/><line style="stroke:#000000;stroke-width:1.5;" x1="6" x2="85" y1="29.6094" y2="29.6094"/><text fill="#000000" font-family="sans-serif" font-size="14" font-weight="bold" lengthAdjust="spacing" textLength="66" x="10" y="22.5332">customer</text></g><!--cluster order--><g id="cluster_order"><path d="M430.5,50.03 L470.5,50.03 A3.75,3.75 0 0 1 473,52.53 L480,73.6394 L873.5,73.6394 A2.5,2.5 0 0 1 876,76.1394 L876,592 A2.5,2.5 0 0 1 873.5,594.5 L430.5,594.5 A2.5,2.5 0 0 1 428,592 L428,52.53 A2.5,2.5 0 0 1 430.5,50.03 " fill="none" style="stroke:#000000;stroke-width:1.5;"/><line style="stroke:#000000;stroke-width:1.5;" x1="428" x2="480" y1="73.6394" y2="73.6394"/><text fill="#000000" font-family="sans-serif" font-size="14" font-weight="bold" lengthAdjust="spacing" textLength="39" x="432" y="66.5632">order</text></g><!--cluster shoppingcart--><g id="cluster_shoppingcart"><path d="M17.5,663.5 L111.5,663.5 A3.75,3.75 0 0 1 114,666 L121,687.1094 L741.5,687.1094 A2.5,2.5 0 0 1 744,689.6094 L744,965.41 A2.5,2.5 0 0 1 741.5,967.91 L17.5,967.91 A2.5,2.5 0 0 1 15,965.41 L15,666 A2.5,2.5 0 0 1 17.5,663.5 " fill="none" style="stroke:#000000;stroke-width:1.5;"/><line style="stroke:#000000;stroke-width:1.5;" x1="15" x2="121" y1="687.1094" y2="687.1094"/><text fill="#000000" font-family="sans-serif" font-size="14" font-weight="bold" lengthAdjust="spacing" textLength="93" x="19" y="680.0332">shoppingcart</text></g><!--class IUserInterface--><g id="elem_IUserInterface"><rect codeLine="4" fill="#F1F1F1" height="199.5781" id="IUserInterface" rx="2.5" ry="2.5" style="stroke:#181818;stroke-width:0.5;" width="256" x="77" y="42"/><ellipse cx="155.75" cy="63.3516" fill="#B4A7E5" rx="11" ry="11" style="stroke:#181818;stroke-width:1.0;"/><path d="M156.7031,59.9922 L156.7031,66.6484 L158.4219,66.6484 Q159.0313,66.6484 159.2969,66.8828 Q159.5625,67.1172 159.5625,67.5078 Q159.5625,67.8828 159.2969,68.1172 Q159.0313,68.3516 158.4219,68.3516 L153.2813,68.3516 Q152.6719,68.3516 152.4063,68.1172 Q152.1406,67.8828 152.1406,67.4922 Q152.1406,67.1172 152.4063,66.8828 Q152.6719,66.6484 153.2813,66.6484 L155,66.6484 L155,59.9922 L153.2813,59.9922 Q152.6719,59.9922 152.4063,59.7578 Q152.1406,59.5234 152.1406,59.1328 Q152.1406,58.7578 152.4063,58.5234 Q152.6719,58.2891 153.2813,58.2891 L158.4219,58.2891 Q159.0313,58.2891 159.2969,58.5234 Q159.5625,58.7578 159.5625,59.1328 Q159.5625,59.5234 159.2969,59.7578 Q159.0313,59.9922 158.4219,59.9922 L156.7031,59.9922 Z " fill="#000000"/><text fill="#000000" font-family="sans-serif" font-size="12" font-style="italic" lengthAdjust="spacing" textLength="62" x="190.25" y="59.457">&#171;Interface&#187;</text><text fill="#000000" font-family="sans-serif" font-size="14" font-style="italic" lengthAdjust="spacing" textLength="90" x="176.25" y="76.627">IUserInterface</text><line style="stroke:#181818;stroke-width:0.5;" x1="78" x2="332" y1="84.7031" y2="84.7031"/><line style="stroke:#181818;stroke-width:0.5;" x1="78" x2="332" y1="92.7031" y2="92.7031"/><text fill="#000000" font-family="sans-serif" font-size="14" font-style="italic" lengthAdjust="spacing" textLength="124" x="83" y="111.2363">+getName() : String</text><text fill="#000000" font-family="sans-serif" font-size="14" font-style="italic" lengthAdjust="spacing" textLength="195" x="83" y="128.8457">+setName(name : String) : void</text><text fill="#000000" font-family="sans-serif" font-size="14" font-style="italic" lengthAdjust="spacing" textLength="148" x="83" y="146.4551">+getPassword() : String</text><text fill="#000000" font-family="sans-serif" font-size="14" font-style="italic" lengthAdjust="spacing" textLength="244" x="83" y="164.0645">+setPassword(password : String) : void</text><text fill="#000000" font-family="sans-serif" font-size="14" font-style="italic" lengthAdjust="spacing" textLength="140" x="83" y="181.6738">+getCustomerID() : int</text><text fill="#000000" font-family="sans-serif" font-size="14" font-style="italic" lengthAdjust="spacing" textLength="164" x="83" y="199.2832">+getCart() : ShoppingCart</text><text fill="#000000" font-family="sans-serif" font-size="14" font-style="italic" lengthAdjust="spacing" textLength="113" x="83" y="216.8926">+clearCart() : void</text><text fill="#000000" font-family="sans-serif" font-size="14" font-style="italic" lengthAdjust="spacing" textLength="152" x="83" y="234.502">+getCartTotal() : double</text></g><!--class User--><g id="elem_User"><rect codeLine="15" fill="#F1F1F1" height="206.4844" id="User" rx="2.5" ry="2.5" style="stroke:#181818;stroke-width:0.5;" width="366" x="22" y="336.8"/><ellipse cx="186.25" cy="352.8" fill="#ADD1B2" rx="11" ry="11" style="stroke:#181818;stroke-width:1.0;"/><path d="M189.0156,348.675 Q189.1719,348.4562 189.3594,348.3469 Q189.5469,348.2375 189.7656,348.2375 Q190.1406,348.2375 190.375,348.5031 Q190.6094,348.7531 190.6094,349.3625 L190.6094,350.8156 Q190.6094,351.425 190.375,351.6906 Q190.1406,351.9562 189.7656,351.9562 Q189.4219,351.9562 189.2188,351.7531 Q189.0156,351.5656 188.9063,351.05 Q188.8594,350.6906 188.6719,350.5031 Q188.3438,350.1281 187.7344,349.9094 Q187.125,349.6906 186.5,349.6906 Q185.7344,349.6906 185.0938,350.0187 Q184.4688,350.3469 183.9688,351.0969 Q183.4844,351.8469 183.4844,352.8781 L183.4844,353.9719 Q183.4844,355.2062 184.375,356.0344 Q185.2656,356.8469 186.8594,356.8469 Q187.7969,356.8469 188.4531,356.5969 Q188.8438,356.4406 189.2656,356.0031 Q189.5313,355.7375 189.6719,355.6594 Q189.8281,355.5812 190.0313,355.5812 Q190.3594,355.5812 190.6094,355.8469 Q190.875,356.0969 190.875,356.4406 Q190.875,356.7844 190.5313,357.1906 Q190.0313,357.7687 189.2344,358.0969 Q188.1563,358.55 186.8594,358.55 Q185.3438,358.55 184.1406,357.925 Q183.1563,357.425 182.4688,356.3625 Q181.7813,355.2844 181.7813,354.0031 L181.7813,352.8469 Q181.7813,351.5187 182.3906,350.3781 Q183.0156,349.2219 184.1094,348.6125 Q185.2031,347.9875 186.4375,347.9875 Q187.1719,347.9875 187.8125,348.1594 Q188.4688,348.3156 189.0156,348.675 Z " fill="#000000"/><text fill="#000000" font-family="sans-serif" font-size="14" lengthAdjust="spacing" textLength="29" x="206.75" y="358.5285">User</text><line style="stroke:#181818;stroke-width:0.5;" x1="23" x2="387" y1="368.8" y2="368.8"/><text fill="#000000" font-family="sans-serif" font-size="14" lengthAdjust="spacing" textLength="103" x="28" y="387.3332">-customerID : int</text><text fill="#000000" font-family="sans-serif" font-size="14" lengthAdjust="spacing" textLength="89" x="28" y="404.9426">-name : String</text><text fill="#000000" font-family="sans-serif" font-size="14" lengthAdjust="spacing" textLength="114" x="28" y="422.552">-password : String</text><text fill="#000000" font-family="sans-serif" font-size="14" lengthAdjust="spacing" textLength="128" x="28" y="440.1613">-cart : ShoppingCart</text><text fill="#000000" font-family="sans-serif" font-size="14" lengthAdjust="spacing" textLength="162" x="28" y="457.7707">-orders : ArrayList&lt;Long&gt;</text><line style="stroke:#181818;stroke-width:0.5;" x1="23" x2="387" y1="464.8469" y2="464.8469"/><text fill="#000000" font-family="sans-serif" font-size="14" lengthAdjust="spacing" textLength="354" x="28" y="483.3801">+User(customerID : int, name : String, password : String)</text><text fill="#000000" font-family="sans-serif" font-size="14" lengthAdjust="spacing" textLength="198" x="28" y="500.9895">+getOrders() : ArrayList&lt;Long&gt;</text><text fill="#000000" font-family="sans-serif" font-size="14" lengthAdjust="spacing" textLength="203" x="28" y="518.5988">+addOrder(orderID : long) : void</text><text fill="#000000" font-family="sans-serif" font-size="14" lengthAdjust="spacing" textLength="116" x="28" y="536.2082">+toString() : String</text></g><!--class IOrderInterface--><g id="elem_IOrderInterface"><rect codeLine="33" fill="#F1F1F1" height="111.5313" id="IOrderInterface" rx="2.5" ry="2.5" style="stroke:#181818;stroke-width:0.5;" width="166" x="569" y="86.03"/><ellipse cx="600.65" cy="107.3816" fill="#B4A7E5" rx="11" ry="11" style="stroke:#181818;stroke-width:1.0;"/><path d="M601.6031,104.0222 L601.6031,110.6784 L603.3219,110.6784 Q603.9313,110.6784 604.1969,110.9128 Q604.4625,111.1472 604.4625,111.5378 Q604.4625,111.9128 604.1969,112.1472 Q603.9313,112.3816 603.3219,112.3816 L598.1813,112.3816 Q597.5719,112.3816 597.3063,112.1472 Q597.0406,111.9128 597.0406,111.5222 Q597.0406,111.1472 597.3063,110.9128 Q597.5719,110.6784 598.1813,110.6784 L599.9,110.6784 L599.9,104.0222 L598.1813,104.0222 Q597.5719,104.0222 597.3063,103.7878 Q597.0406,103.5534 597.0406,103.1628 Q597.0406,102.7878 597.3063,102.5534 Q597.5719,102.3191 598.1813,102.3191 L603.3219,102.3191 Q603.9313,102.3191 604.1969,102.5534 Q604.4625,102.7878 604.4625,103.1628 Q604.4625,103.5534 604.1969,103.7878 Q603.9313,104.0222 603.3219,104.0222 L601.6031,104.0222 Z " fill="#000000"/><text fill="#000000" font-family="sans-serif" font-size="12" font-style="italic" lengthAdjust="spacing" textLength="62" x="635.85" y="103.487">&#171;Interface&#187;</text><text fill="#000000" font-family="sans-serif" font-size="14" font-style="italic" lengthAdjust="spacing" textLength="97" x="618.35" y="120.657">IOrderInterface</text><line style="stroke:#181818;stroke-width:0.5;" x1="570" x2="734" y1="128.7331" y2="128.7331"/><line style="stroke:#181818;stroke-width:0.5;" x1="570" x2="734" y1="136.7331" y2="136.7331"/><text fill="#000000" font-family="sans-serif" font-size="14" font-style="italic" lengthAdjust="spacing" textLength="128" x="575" y="155.2663">+getOrderID() : long</text><text fill="#000000" font-family="sans-serif" font-size="14" font-style="italic" lengthAdjust="spacing" textLength="154" x="575" y="172.8757">+getOrderDate() : String</text><text fill="#000000" font-family="sans-serif" font-size="14" font-style="italic" lengthAdjust="spacing" textLength="122" x="575" y="190.4851">+getCost() : double</text></g><!--class Order--><g id="elem_Order"><rect codeLine="39" fill="#F1F1F1" height="276.9219" id="Order" rx="2.5" ry="2.5" style="stroke:#181818;stroke-width:0.5;" width="415" x="444.5" y="301.58"/><ellipse cx="629.25" cy="317.58" fill="#ADD1B2" rx="11" ry="11" style="stroke:#181818;stroke-width:1.0;"/><path d="M632.0156,313.455 Q632.1719,313.2362 632.3594,313.1269 Q632.5469,313.0175 632.7656,313.0175 Q633.1406,313.0175 633.375,313.2831 Q633.6094,313.5331 633.6094,314.1425 L633.6094,315.5956 Q633.6094,316.205 633.375,316.4706 Q633.1406,316.7362 632.7656,316.7362 Q632.4219,316.7362 632.2188,316.5331 Q632.0156,316.3456 631.9063,315.83 Q631.8594,315.4706 631.6719,315.2831 Q631.3438,314.9081 630.7344,314.6894 Q630.125,314.4706 629.5,314.4706 Q628.7344,314.4706 628.0938,314.7987 Q627.4688,315.1269 626.9688,315.8769 Q626.4844,316.6269 626.4844,317.6581 L626.4844,318.7519 Q626.4844,319.9862 627.375,320.8144 Q628.2656,321.6269 629.8594,321.6269 Q630.7969,321.6269 631.4531,321.3769 Q631.8438,321.2206 632.2656,320.7831 Q632.5313,320.5175 632.6719,320.4394 Q632.8281,320.3612 633.0313,320.3612 Q633.3594,320.3612 633.6094,320.6269 Q633.875,320.8769 633.875,321.2206 Q633.875,321.5644 633.5313,321.9706 Q633.0313,322.5487 632.2344,322.8769 Q631.1563,323.33 629.8594,323.33 Q628.3438,323.33 627.1406,322.705 Q626.1563,322.205 625.4688,321.1425 Q624.7813,320.0644 624.7813,318.7831 L624.7813,317.6269 Q624.7813,316.2987 625.3906,315.1581 Q626.0156,314.0019 627.1094,313.3925 Q628.2031,312.7675 629.4375,312.7675 Q630.1719,312.7675 630.8125,312.9394 Q631.4688,313.0956 632.0156,313.455 Z " fill="#000000"/><text fill="#000000" font-family="sans-serif" font-size="14" lengthAdjust="spacing" textLength="37" x="649.75" y="323.3085">Order</text><line style="stroke:#181818;stroke-width:0.5;" x1="445.5" x2="858.5" y1="333.58" y2="333.58"/><text fill="#000000" font-family="sans-serif" font-size="14" lengthAdjust="spacing" textLength="91" x="450.5" y="352.1132">-orderID : long</text><text fill="#000000" font-family="sans-serif" font-size="14" lengthAdjust="spacing" textLength="116" x="450.5" y="369.7226">-totalCost : double</text><text fill="#000000" font-family="sans-serif" font-size="14" lengthAdjust="spacing" textLength="118" x="450.5" y="387.332">-orderDate : String</text><text fill="#000000" font-family="sans-serif" font-size="14" lengthAdjust="spacing" textLength="103" x="450.5" y="404.9413">-customerID : int</text><text fill="#000000" font-family="sans-serif" font-size="14" lengthAdjust="spacing" textLength="148" x="450.5" y="422.5507">-customerName : String</text><text fill="#000000" font-family="sans-serif" font-size="14" lengthAdjust="spacing" textLength="205" x="450.5" y="440.1601">-cart : HashMap&lt;String, Integer&gt;</text><line style="stroke:#181818;stroke-width:0.5;" x1="445.5" x2="858.5" y1="447.2362" y2="447.2362"/><text fill="#000000" font-family="sans-serif" font-size="14" lengthAdjust="spacing" textLength="403" x="450.5" y="465.7695">+Order(customer : User, cart : HashMap&lt;AbstractItem, Integer&gt;)</text><text fill="#000000" font-family="sans-serif" font-size="14" lengthAdjust="spacing" textLength="370" x="450.5" y="483.3788">-defineOrder(cart : HashMap&lt;AbstractItem, Integer&gt;) : void</text><text fill="#000000" font-family="sans-serif" font-size="14" lengthAdjust="spacing" textLength="192" x="450.5" y="500.9882">-setOrderID(date : Date) : void</text><text fill="#000000" font-family="sans-serif" font-size="14" lengthAdjust="spacing" textLength="342" x="450.5" y="518.5976">-setCost(cart : HashMap&lt;AbstractItem, Integer&gt;) : void</text><text fill="#000000" font-family="sans-serif" font-size="14" lengthAdjust="spacing" textLength="193" x="450.5" y="536.207">-formatDate(date : Date) : void</text><text fill="#000000" font-family="sans-serif" font-size="14" lengthAdjust="spacing" textLength="340" x="450.5" y="553.8163">-setCart(cart : HashMap&lt;AbstractItem, Integer&gt;) : void</text><text fill="#000000" font-family="sans-serif" font-size="14" lengthAdjust="spacing" textLength="184" x="450.5" y="571.4257">+getCustomerName() : String</text></g><!--class ShoppingCart--><g id="elem_ShoppingCart"><rect codeLine="60" fill="#F1F1F1" height="252.4063" id="ShoppingCart" rx="2.5" ry="2.5" style="stroke:#181818;stroke-width:0.5;" width="349" x="30.5" y="699.5"/><ellipse cx="157.25" cy="720.8516" fill="#ADD1B2" rx="11" ry="11" style="stroke:#181818;stroke-width:1.0;"/><path d="M160.0156,716.7266 Q160.1719,716.5078 160.3594,716.3984 Q160.5469,716.2891 160.7656,716.2891 Q161.1406,716.2891 161.375,716.5547 Q161.6094,716.8047 161.6094,717.4141 L161.6094,718.8672 Q161.6094,719.4766 161.375,719.7422 Q161.1406,720.0078 160.7656,720.0078 Q160.4219,720.0078 160.2188,719.8047 Q160.0156,719.6172 159.9063,719.1016 Q159.8594,718.7422 159.6719,718.5547 Q159.3438,718.1797 158.7344,717.9609 Q158.125,717.7422 157.5,717.7422 Q156.7344,717.7422 156.0938,718.0703 Q155.4688,718.3984 154.9688,719.1484 Q154.4844,719.8984 154.4844,720.9297 L154.4844,722.0234 Q154.4844,723.2578 155.375,724.0859 Q156.2656,724.8984 157.8594,724.8984 Q158.7969,724.8984 159.4531,724.6484 Q159.8438,724.4922 160.2656,724.0547 Q160.5313,723.7891 160.6719,723.7109 Q160.8281,723.6328 161.0313,723.6328 Q161.3594,723.6328 161.6094,723.8984 Q161.875,724.1484 161.875,724.4922 Q161.875,724.8359 161.5313,725.2422 Q161.0313,725.8203 160.2344,726.1484 Q159.1563,726.6016 157.8594,726.6016 Q156.3438,726.6016 155.1406,725.9766 Q154.1563,725.4766 153.4688,724.4141 Q152.7813,723.3359 152.7813,722.0547 L152.7813,720.8984 Q152.7813,719.5703 153.3906,718.4297 Q154.0156,717.2734 155.1094,716.6641 Q156.2031,716.0391 157.4375,716.0391 Q158.1719,716.0391 158.8125,716.2109 Q159.4688,716.3672 160.0156,716.7266 Z " fill="#000000"/><text fill="#000000" font-family="sans-serif" font-size="12" font-style="italic" lengthAdjust="spacing" textLength="66" x="188.25" y="716.957">&#171;Singleton&#187;</text><text fill="#000000" font-family="sans-serif" font-size="14" lengthAdjust="spacing" textLength="87" x="177.75" y="734.127">ShoppingCart</text><line style="stroke:#181818;stroke-width:0.5;" x1="31.5" x2="378.5" y1="742.2031" y2="742.2031"/><text fill="#000000" font-family="sans-serif" font-size="14" lengthAdjust="spacing" textLength="189" x="36.5" y="760.7363">-shoppingCart : ShoppingCart</text><text fill="#000000" font-family="sans-serif" font-size="14" lengthAdjust="spacing" textLength="302" x="36.5" y="778.3457">-shoppingList : HashMap&lt;AbstractItem, Integer&gt;</text><text fill="#000000" font-family="sans-serif" font-size="14" lengthAdjust="spacing" textLength="87" x="36.5" y="795.9551">-total : double</text><line style="stroke:#181818;stroke-width:0.5;" x1="31.5" x2="378.5" y1="803.0312" y2="803.0312"/><text fill="#000000" font-family="sans-serif" font-size="14" lengthAdjust="spacing" textLength="288" x="36.5" y="821.5645">-ShoppingCart(builder : ShoppingCartBuilder)</text><text fill="#000000" font-family="sans-serif" font-size="14" lengthAdjust="spacing" text-decoration="underline" textLength="190" x="36.5" y="839.1738">+getInstance() : ShoppingCart</text><text fill="#000000" font-family="sans-serif" font-size="14" lengthAdjust="spacing" text-decoration="underline" textLength="229" x="36.5" y="856.7832">+addToCart(item : AbstractItem) : int</text><text fill="#000000" font-family="sans-serif" font-size="14" lengthAdjust="spacing" text-decoration="underline" textLength="331" x="36.5" y="874.3926">+removeFromCart(item : AbstractItem) : AbstractItem</text><text fill="#000000" font-family="sans-serif" font-size="14" lengthAdjust="spacing" text-decoration="underline" textLength="104" x="36.5" y="892.002">-setTotal() : void</text><text fill="#000000" font-family="sans-serif" font-size="14" lengthAdjust="spacing" text-decoration="underline" textLength="125" x="36.5" y="909.6113">+getTotal() : double</text><text fill="#000000" font-family="sans-serif" font-size="14" lengthAdjust="spacing" text-decoration="underline" textLength="337" x="36.5" y="927.2207">+getShoppingList() : HashMap&lt;AbstractItem, Integer&gt;</text><text fill="#000000" font-family="sans-serif" font-size="14" lengthAdjust="spacing" text-decoration="underline" textLength="114" x="36.5" y="944.8301">+clearCart() : void</text></g><!--class ShoppingCartBuilder--><g id="elem_ShoppingCartBuilder"><rect codeLine="75" fill="#F1F1F1" height="111.5313" id="ShoppingCartBuilder" rx="2.5" ry="2.5" style="stroke:#181818;stroke-width:0.5;" width="314" x="414" y="769.94"/><ellipse cx="501.25" cy="791.2916" fill="#ADD1B2" rx="11" ry="11" style="stroke:#181818;stroke-width:1.0;"/><path d="M504.0156,787.1666 Q504.1719,786.9478 504.3594,786.8384 Q504.5469,786.7291 504.7656,786.7291 Q505.1406,786.7291 505.375,786.9947 Q505.6094,787.2447 505.6094,787.8541 L505.6094,789.3072 Q505.6094,789.9166 505.375,790.1822 Q505.1406,790.4478 504.7656,790.4478 Q504.4219,790.4478 504.2188,790.2447 Q504.0156,790.0572 503.9063,789.5416 Q503.8594,789.1822 503.6719,788.9947 Q503.3438,788.6197 502.7344,788.4009 Q502.125,788.1822 501.5,788.1822 Q500.7344,788.1822 500.0938,788.5103 Q499.4688,788.8384 498.9688,789.5884 Q498.4844,790.3384 498.4844,791.3697 L498.4844,792.4634 Q498.4844,793.6978 499.375,794.5259 Q500.2656,795.3384 501.8594,795.3384 Q502.7969,795.3384 503.4531,795.0884 Q503.8438,794.9322 504.2656,794.4947 Q504.5313,794.2291 504.6719,794.1509 Q504.8281,794.0728 505.0313,794.0728 Q505.3594,794.0728 505.6094,794.3384 Q505.875,794.5884 505.875,794.9322 Q505.875,795.2759 505.5313,795.6822 Q505.0313,796.2603 504.2344,796.5884 Q503.1563,797.0416 501.8594,797.0416 Q500.3438,797.0416 499.1406,796.4166 Q498.1563,795.9166 497.4688,794.8541 Q496.7813,793.7759 496.7813,792.4947 L496.7813,791.3384 Q496.7813,790.0103 497.3906,788.8697 Q498.0156,787.7134 499.1094,787.1041 Q500.2031,786.4791 501.4375,786.4791 Q502.1719,786.4791 502.8125,786.6509 Q503.4688,786.8072 504.0156,787.1666 Z " fill="#000000"/><text fill="#000000" font-family="sans-serif" font-size="12" font-style="italic" lengthAdjust="spacing" textLength="44" x="565.25" y="787.397">&#171;Static&#187;</text><text fill="#000000" font-family="sans-serif" font-size="14" lengthAdjust="spacing" textLength="131" x="521.75" y="804.567">ShoppingCartBuilder</text><line style="stroke:#181818;stroke-width:0.5;" x1="415" x2="727" y1="812.6431" y2="812.6431"/><text fill="#000000" font-family="sans-serif" font-size="14" lengthAdjust="spacing" textLength="302" x="420" y="831.1763">-shoppingList : HashMap&lt;AbstractItem, Integer&gt;</text><line style="stroke:#181818;stroke-width:0.5;" x1="415" x2="727" y1="838.2525" y2="838.2525"/><text fill="#000000" font-family="sans-serif" font-size="14" lengthAdjust="spacing" textLength="149" x="420" y="856.7857">+ShoppingCartBuilder()</text><text fill="#000000" font-family="sans-serif" font-size="14" lengthAdjust="spacing" textLength="147" x="420" y="874.3951">+build() : ShoppingCart</text></g><!--reverse link IUserInterface to User--><g id="link_IUserInterface_User"><path codeLine="28" d="M205,247.85 C205,278.3 205,305.86 205,336.53 " fill="none" id="IUserInterface-backto-User" style="stroke:#181818;stroke-width:1.0;stroke-dasharray:7.0,7.0;"/><polygon fill="#181818" points="205,241.85,201,250.85,205,246.85,209,250.85,205,241.85" style="stroke:#181818;stroke-width:1.0;"/></g><!--reverse link IOrderInterface to Order--><g id="link_IOrderInterface_Order"><path codeLine="56" d="M652,203.82 C652,233.1 652,264.55 652,301.16 " fill="none" id="IOrderInterface-backto-Order" style="stroke:#181818;stroke-width:1.0;stroke-dasharray:7.0,7.0;"/><polygon fill="#181818" points="652,197.82,648,206.82,652,202.82,656,206.82,652,197.82" style="stroke:#181818;stroke-width:1.0;"/></g><!--reverse link ShoppingCart to ShoppingCartBuilder--><g id="link_ShoppingCart_ShoppingCartBuilder"><path codeLine="81" d="M391.78,825.71 C403.11,825.71 402.44,825.71 413.77,825.71 " fill="none" id="ShoppingCart-backto-ShoppingCartBuilder" style="stroke:#181818;stroke-width:1.0;"/><polygon fill="#181818" points="379.78,825.71,385.78,829.71,391.78,825.71,385.78,821.71,379.78,825.71" style="stroke:#181818;stroke-width:1.0;"/></g><!--link User to Order--><g id="link_User_Order"><path codeLine="84" d="M388.34,440.04 C406.96,440.04 425.59,440.04 444.21,440.04 " fill="none" id="User-Order" style="stroke:#181818;stroke-width:1.0;"/></g><!--link User to ShoppingCart--><g id="link_User_ShoppingCart"><path codeLine="85" d="M205,543.61 C205,591.44 205,648.81 205,699.21 " fill="none" id="User-ShoppingCart" style="stroke:#181818;stroke-width:1.0;"/></g><!--SRC=[bLNRZjem47qcNs7jKrhmgiyLGcAxgXffkwt4zWDCOeArYHtPPbSjuj_h6UVYN63X1U7ncJEtuubv5R9YcfKaBPWnQskrs1uiJr8bD-8V9r-Yg6BfAyivkKiFnggIwpjoZ6P2MgvtBEKa-MEuJjhZSacwmse5sDdyoBR6QfRQ4ycvVMObZp-HhsJZmiby030rGBgV5WFeDoMoCTblb_Uxqjb5mXPKrN-k8FvMbviy8hKhU0B3jFM1zwgg71qO1h2qu4otm3EntFMBign0JAOEsu97irCqYsOu608znbRIj4shJOhsMWM6KPdewOACKwKEnhLn5skjsTydOUpoISbyvUuWKOWS3uCkI2_aWepx2hwkib_8ZcMD-USion0GOnB8NgZ-KApoXBtvOcU6mhk_npQvgrEWMcGUIXQ3tgHPx-6b02cUGJmoUq7QC6bbxBaX8uEVShyVOB4W3_0EV6iS1ErFUa8ZZUrvg9LQ5Z-OsVzarRAPA3GavxgHWHzJG-BmqEe56JYlwr8JoykE0hH0CxuJajSqLtbr8g2c6q3cYuMQ1mXixStKEwLBPd5k5wZX-TvAFG-Mo6ZbUGKFTUWaZAQUWatzO24-2jch9Np7eE2D-rzmgsIZO6f2nFZXDzVm93-igvLWA3ymXgpnzY2A3EKHcX-y5LV2qLXcHOfl8P7k85C-lK4ReDiHBmhPXSi8zaYGOBYP6mVDI_N6lsjLNl8Apr17w-x6tQtYTbq7QOyNTVz-4_GLOHzsjdEV-bW46sAYgpXwz1xD_Th1pYTeOvmMpdDYF9ZIL3Aqu3jBwUS-tgaPFs1KYtplhckHUrkctYNjoUW_]--></g></svg>