<?xml version="1.0" encoding="us-ascii" standalone="no"?><svg xmlns="http://www.w3.org/2000/svg" xmlns:xlink="http://www.w3.org/1999/xlink" contentStyleType="text/css" height="299px" preserveAspectRatio="none" style="width:574px;height:299px;background:#FFFFFF;" version="1.1" viewBox="0 0 574 299" width="574px" zoomAndPan="magnify"><defs/><g><!--cluster logwriter--><g id="cluster_logwriter"><path d="M8.5,6 L72.5,6 A3.75,3.75 0 0 1 75,8.5 L82,29.6094 L564.5,29.6094 A2.5,2.5 0 0 1 567,32.1094 L567,290.3 A2.5,2.5 0 0 1 564.5,292.8 L8.5,292.8 A2.5,2.5 0 0 1 6,290.3 L6,8.5 A2.5,2.5 0 0 1 8.5,6 " fill="none" style="stroke:#000000;stroke-width:1.5;"/><line style="stroke:#000000;stroke-width:1.5;" x1="6" x2="82" y1="29.6094" y2="29.6094"/><text fill="#000000" font-family="sans-serif" font-size="14" font-weight="bold" lengthAdjust="spacing" textLength="63" x="10" y="22.5332">logwriter</text></g><!--class LogWriter--><g id="elem_LogWriter"><rect codeLine="4" fill="#F1F1F1" height="234.7969" id="LogWriter" rx="2.5" ry="2.5" style="stroke:#181818;stroke-width:0.5;" width="418" x="133" y="42"/><ellipse cx="306.75" cy="63.3516" fill="#ADD1B2" rx="11" ry="11" style="stroke:#181818;stroke-width:1.0;"/><path d="M309.5156,59.2266 Q309.6719,59.0078 309.8594,58.8984 Q310.0469,58.7891 310.2656,58.7891 Q310.6406,58.7891 310.875,59.0547 Q311.1094,59.3047 311.1094,59.9141 L311.1094,61.3672 Q311.1094,61.9766 310.875,62.2422 Q310.6406,62.5078 310.2656,62.5078 Q309.9219,62.5078 309.7188,62.3047 Q309.5156,62.1172 309.4063,61.6016 Q309.3594,61.2422 309.1719,61.0547 Q308.8438,60.6797 308.2344,60.4609 Q307.625,60.2422 307,60.2422 Q306.2344,60.2422 305.5938,60.5703 Q304.9688,60.8984 304.4688,61.6484 Q303.9844,62.3984 303.9844,63.4297 L303.9844,64.5234 Q303.9844,65.7578 304.875,66.5859 Q305.7656,67.3984 307.3594,67.3984 Q308.2969,67.3984 308.9531,67.1484 Q309.3438,66.9922 309.7656,66.5547 Q310.0313,66.2891 310.1719,66.2109 Q310.3281,66.1328 310.5313,66.1328 Q310.8594,66.1328 311.1094,66.3984 Q311.375,66.6484 311.375,66.9922 Q311.375,67.3359 311.0313,67.7422 Q310.5313,68.3203 309.7344,68.6484 Q308.6563,69.1016 307.3594,69.1016 Q305.8438,69.1016 304.6406,68.4766 Q303.6563,67.9766 302.9688,66.9141 Q302.2813,65.8359 302.2813,64.5547 L302.2813,63.3984 Q302.2813,62.0703 302.8906,60.9297 Q303.5156,59.7734 304.6094,59.1641 Q305.7031,58.5391 306.9375,58.5391 Q307.6719,58.5391 308.3125,58.7109 Q308.9688,58.8672 309.5156,59.2266 Z " fill="#000000"/><text fill="#000000" font-family="sans-serif" font-size="12" font-style="italic" lengthAdjust="spacing" textLength="66" x="325.25" y="59.457">&#171;Singleton&#187;</text><text fill="#000000" font-family="sans-serif" font-size="14" lengthAdjust="spacing" textLength="62" x="327.25" y="76.627">LogWriter</text><line style="stroke:#181818;stroke-width:0.5;" x1="134" x2="550" y1="84.7031" y2="84.7031"/><text fill="#000000" font-family="sans-serif" font-size="14" lengthAdjust="spacing" text-decoration="underline" textLength="207" x="139" y="103.2363">-dateFormat : SimpleDateFormat</text><text fill="#000000" font-family="sans-serif" font-size="14" lengthAdjust="spacing" text-decoration="underline" textLength="132" x="139" y="120.8457">-instance : LogWriter</text><text fill="#000000" font-family="sans-serif" font-size="14" lengthAdjust="spacing" text-decoration="underline" textLength="82" x="139" y="138.4551">-logFile : File</text><text fill="#000000" font-family="sans-serif" font-size="14" lengthAdjust="spacing" text-decoration="underline" textLength="55" x="139" y="156.0645">-id : long</text><line style="stroke:#181818;stroke-width:0.5;" x1="134" x2="550" y1="163.1406" y2="163.1406"/><text fill="#000000" font-family="sans-serif" font-size="14" lengthAdjust="spacing" textLength="131" x="139" y="181.6738">-LogWriter(log : File)</text><text fill="#000000" font-family="sans-serif" font-size="14" lengthAdjust="spacing" text-decoration="underline" textLength="258" x="139" y="199.2832">+getLogWriter(name : String) : LogWriter</text><text fill="#000000" font-family="sans-serif" font-size="14" lengthAdjust="spacing" text-decoration="underline" textLength="85" x="139" y="216.8926">-setID() : void</text><text fill="#000000" font-family="sans-serif" font-size="14" lengthAdjust="spacing" text-decoration="underline" textLength="97" x="139" y="234.502">+getLog() : File</text><text fill="#000000" font-family="sans-serif" font-size="14" lengthAdjust="spacing" text-decoration="underline" textLength="406" x="139" y="252.1113">+log(level : Level, event : String, optionalMessage : String) : void</text><text fill="#000000" font-family="sans-serif" font-size="14" lengthAdjust="spacing" text-decoration="underline" textLength="383" x="139" y="269.7207">+log(level : Level, event : String, exception : Exception) : void</text></g><!--class Level--><g id="elem_Level"><rect codeLine="18" fill="#F1F1F1" height="100.8281" id="Level" rx="2.5" ry="2.5" style="stroke:#181818;stroke-width:0.5;" width="76" x="22" y="108.99"/><ellipse cx="41.5" cy="124.99" fill="#EB937F" rx="11" ry="11" style="stroke:#181818;stroke-width:1.0;"/><path d="M40.3594,125.7869 L40.3594,128.2869 L44.6875,128.2869 L44.6875,127.365 Q44.6875,126.7556 44.9219,126.49 Q45.1719,126.2244 45.5469,126.2244 Q45.9219,126.2244 46.1563,126.49 Q46.3906,126.7556 46.3906,127.365 L46.3906,129.99 L38.3906,129.99 Q37.7656,129.99 37.5,129.7556 Q37.25,129.5213 37.25,129.1306 Q37.25,128.7556 37.5156,128.5213 Q37.7813,128.2869 38.3906,128.2869 L38.6563,128.2869 L38.6563,121.6306 L38.3906,121.6306 Q37.7656,121.6306 37.5,121.3963 Q37.25,121.1619 37.25,120.7713 Q37.25,120.3963 37.5,120.1619 Q37.7656,119.9275 38.3906,119.9275 L46.0156,119.9275 L46.0156,122.5213 Q46.0156,123.1306 45.7813,123.3963 Q45.5625,123.6463 45.1719,123.6463 Q44.7969,123.6463 44.5625,123.3963 Q44.3281,123.1306 44.3281,122.5213 L44.3281,121.6306 L40.3594,121.6306 L40.3594,124.0838 L41.8438,124.0838 Q41.8438,123.4275 41.9688,123.24 Q42.2344,122.8338 42.7031,122.8338 Q43.0781,122.8338 43.3125,123.0994 Q43.5469,123.3494 43.5469,123.9588 L43.5469,125.9275 Q43.5469,126.4744 43.4219,126.6619 Q43.1563,127.0525 42.7031,127.0525 Q42.2344,127.0525 41.9688,126.6463 Q41.8438,126.4588 41.8438,125.7869 L40.3594,125.7869 Z " fill="#000000"/><text fill="#000000" font-family="sans-serif" font-size="14" lengthAdjust="spacing" textLength="34" x="56.5" y="130.7185">Level</text><line style="stroke:#181818;stroke-width:0.5;" x1="23" x2="97" y1="140.99" y2="140.99"/><text fill="#000000" font-family="sans-serif" font-size="14" lengthAdjust="spacing" textLength="32" x="28" y="159.5232">INFO</text><text fill="#000000" font-family="sans-serif" font-size="14" lengthAdjust="spacing" textLength="64" x="28" y="177.1326">WARNING</text><text fill="#000000" font-family="sans-serif" font-size="14" lengthAdjust="spacing" textLength="55" x="28" y="194.742">SEVERE</text><line style="stroke:#181818;stroke-width:0.5;" x1="23" x2="97" y1="201.8181" y2="201.8181"/></g><!--SRC=[ZL5DQy9043sRNp5uYcYXvoA2O582RGe6wdcR3ClYPZPaHrig-U-TJMqqj48lcU5zxMFYzuOQrQeQIgkyNpEtvkt0c9ME2lE9S1z5ZIhtIYDChTFlhM5ift2A9hq1dfpUzHWibr0OqXRP4QnMGJAvEtbMRCeEAiMOkhPM30-YgnkBcm4QAGt9HYMARWWV2QH6QcpWmnXxAq6j8ore88Q0M4ndmqo8-U3Go1SHgJh45d84qhER1Jnojea3VtIc-YEkvyxbvjUzOuj7j24up0N8btXuSG6kOUD8sMVqFfpykiklj_wHXnybzf629J_x9QoBv4f8X_hRt_-oB4zVPEpMsppB7sKhajTacmHn5tq1]--></g></svg>