<?xml version="1.0" encoding="us-ascii" standalone="no"?><svg xmlns="http://www.w3.org/2000/svg" xmlns:xlink="http://www.w3.org/1999/xlink" contentStyleType="text/css" height="945px" preserveAspectRatio="none" style="width:1512px;height:945px;background:#FFFFFF;" version="1.1" viewBox="0 0 1512 945" width="1512px" zoomAndPan="magnify"><defs/><g><!--cluster item--><g id="cluster_item"><path d="M8.5,6 L39.5,6 A3.75,3.75 0 0 1 42,8.5 L49,29.6094 L1502.5,29.6094 A2.5,2.5 0 0 1 1505,32.1094 L1505,936.39 A2.5,2.5 0 0 1 1502.5,938.89 L8.5,938.89 A2.5,2.5 0 0 1 6,936.39 L6,8.5 A2.5,2.5 0 0 1 8.5,6 " fill="none" style="stroke:#000000;stroke-width:1.5;"/><line style="stroke:#000000;stroke-width:1.5;" x1="6" x2="49" y1="29.6094" y2="29.6094"/><text fill="#000000" font-family="sans-serif" font-size="14" font-weight="bold" lengthAdjust="spacing" textLength="30" x="10" y="22.5332">item</text></g><!--cluster instrument--><g id="cluster_instrument"><path d="M244.5,406.45 L321.5,406.45 A3.75,3.75 0 0 1 324,408.95 L331,430.0594 L736.5,430.0594 A2.5,2.5 0 0 1 739,432.5594 L739,503.95 A2.5,2.5 0 0 1 736.5,506.45 L244.5,506.45 A2.5,2.5 0 0 1 242,503.95 L242,408.95 A2.5,2.5 0 0 1 244.5,406.45 " fill="none" style="stroke:#000000;stroke-width:1.5;"/><line style="stroke:#000000;stroke-width:1.5;" x1="242" x2="331" y1="430.0594" y2="430.0594"/><text fill="#000000" font-family="sans-serif" font-size="14" font-weight="bold" lengthAdjust="spacing" textLength="76" x="246" y="422.9832">instrument</text></g><!--cluster electronics--><g id="cluster_electronics"><path d="M765.5,406.45 L845.5,406.45 A3.75,3.75 0 0 1 848,408.95 L855,430.0594 L1270.5,430.0594 A2.5,2.5 0 0 1 1273,432.5594 L1273,503.95 A2.5,2.5 0 0 1 1270.5,506.45 L765.5,506.45 A2.5,2.5 0 0 1 763,503.95 L763,408.95 A2.5,2.5 0 0 1 765.5,406.45 " fill="none" style="stroke:#000000;stroke-width:1.5;"/><line style="stroke:#000000;stroke-width:1.5;" x1="763" x2="855" y1="430.0594" y2="430.0594"/><text fill="#000000" font-family="sans-serif" font-size="14" font-weight="bold" lengthAdjust="spacing" textLength="79" x="767" y="422.9832">electronics</text></g><!--cluster factory--><g id="cluster_factory"><path d="M32.5,575.45 L81.5,575.45 A3.75,3.75 0 0 1 84,577.95 L91,599.0594 L1478.5,599.0594 A2.5,2.5 0 0 1 1481,601.5594 L1481,912.39 A2.5,2.5 0 0 1 1478.5,914.89 L32.5,914.89 A2.5,2.5 0 0 1 30,912.39 L30,577.95 A2.5,2.5 0 0 1 32.5,575.45 " fill="none" style="stroke:#000000;stroke-width:1.5;"/><line style="stroke:#000000;stroke-width:1.5;" x1="30" x2="91" y1="599.0594" y2="599.0594"/><text fill="#000000" font-family="sans-serif" font-size="14" font-weight="bold" lengthAdjust="spacing" textLength="48" x="34" y="591.9832">factory</text></g><!--class AbstractItem--><g id="elem_AbstractItem"><rect codeLine="4" fill="#F1F1F1" height="340.4531" id="AbstractItem" rx="2.5" ry="2.5" style="stroke:#181818;stroke-width:0.5;" width="677" x="351.5" y="42"/><ellipse cx="646.25" cy="63.3516" fill="#A9DCDF" rx="11" ry="11" style="stroke:#181818;stroke-width:1.0;"/><path d="M648.4375,65.1172 L644.2969,65.1172 L643.875,66.1484 L644.2969,66.1484 Q644.9063,66.1484 645.1719,66.3828 Q645.4375,66.6172 645.4375,67.0078 Q645.4375,67.3828 645.1719,67.6172 Q644.9063,67.8516 644.2969,67.8516 L642,67.8516 Q641.3906,67.8516 641.1406,67.6172 Q640.875,67.3828 640.875,66.9922 Q640.875,66.6172 641.1563,66.3828 Q641.4219,66.1328 642.0469,66.1484 L644.7188,59.4922 L643.6094,59.4922 Q643,59.4922 642.7344,59.2578 Q642.4688,59.0234 642.4688,58.6328 Q642.4688,58.2578 642.7344,58.0234 Q643,57.7891 643.6094,57.7891 L647.2813,57.7891 L650.6719,66.1484 Q651.2656,66.1484 651.4531,66.2891 Q651.8438,66.5547 651.8438,67.0078 Q651.8438,67.3828 651.5781,67.6172 Q651.3281,67.8516 650.7188,67.8516 L648.4219,67.8516 Q647.8125,67.8516 647.5469,67.6172 Q647.2813,67.3828 647.2813,66.9922 Q647.2813,66.6172 647.5469,66.3828 Q647.8125,66.1484 648.4219,66.1484 L648.8438,66.1484 L648.4375,65.1172 Z M647.7188,63.4141 L646.3594,60.0391 L644.9844,63.4141 L647.7188,63.4141 Z " fill="#000000"/><text fill="#000000" font-family="sans-serif" font-size="12" font-style="italic" lengthAdjust="spacing" textLength="58" x="677.25" y="59.457">&#171;abstract&#187;</text><text fill="#000000" font-family="sans-serif" font-size="14" font-style="italic" lengthAdjust="spacing" textLength="79" x="666.75" y="76.627">AbstractItem</text><line style="stroke:#181818;stroke-width:0.5;" x1="352.5" x2="1027.5" y1="84.7031" y2="84.7031"/><text fill="#000000" font-family="sans-serif" font-size="14" lengthAdjust="spacing" textLength="109" x="357.5" y="103.2363">-category : String</text><text fill="#000000" font-family="sans-serif" font-size="14" lengthAdjust="spacing" textLength="112" x="357.5" y="120.8457">-itemType : String</text><text fill="#000000" font-family="sans-serif" font-size="14" lengthAdjust="spacing" textLength="116" x="357.5" y="138.4551">-itemName : String</text><text fill="#000000" font-family="sans-serif" font-size="14" lengthAdjust="spacing" textLength="138" x="357.5" y="156.0645">-manufacturer : String</text><text fill="#000000" font-family="sans-serif" font-size="14" lengthAdjust="spacing" textLength="91" x="357.5" y="173.6738">-price : double</text><line style="stroke:#181818;stroke-width:0.5;" x1="352.5" x2="1027.5" y1="180.75" y2="180.75"/><text fill="#000000" font-family="sans-serif" font-size="14" lengthAdjust="spacing" textLength="665" x="357.5" y="199.2832">+AbstractItem(category: String, itemType : String, itemName : String, manufacturer : String, price : double)</text><text fill="#000000" font-family="sans-serif" font-size="14" lengthAdjust="spacing" textLength="145" x="357.5" y="216.8926">+getCategory() : String</text><text fill="#000000" font-family="sans-serif" font-size="14" lengthAdjust="spacing" textLength="145" x="357.5" y="234.502">+getItemType() : String</text><text fill="#000000" font-family="sans-serif" font-size="14" lengthAdjust="spacing" textLength="149" x="357.5" y="252.1113">+getItemName() : String</text><text fill="#000000" font-family="sans-serif" font-size="14" lengthAdjust="spacing" textLength="248" x="357.5" y="269.7207">+setItemName(itemName : String) : void</text><text fill="#000000" font-family="sans-serif" font-size="14" lengthAdjust="spacing" textLength="171" x="357.5" y="287.3301">+getManufacturer() : String</text><text fill="#000000" font-family="sans-serif" font-size="14" lengthAdjust="spacing" textLength="292" x="357.5" y="304.9395">+setManufacturer(manufacturer : String) : void</text><text fill="#000000" font-family="sans-serif" font-size="14" lengthAdjust="spacing" textLength="125" x="357.5" y="322.5488">+getPrice() : double</text><text fill="#000000" font-family="sans-serif" font-size="14" lengthAdjust="spacing" textLength="193" x="357.5" y="340.1582">+setPrice(price : double) : void</text><text fill="#000000" font-family="sans-serif" font-size="14" lengthAdjust="spacing" textLength="94" x="357.5" y="357.7676">+view() : String</text><text fill="#000000" font-family="sans-serif" font-size="14" lengthAdjust="spacing" textLength="116" x="357.5" y="375.377">+toString() : String</text></g><!--class Violin--><g id="elem_Violin"><rect codeLine="24" fill="#F1F1F1" height="48" id="Violin" rx="2.5" ry="2.5" style="stroke:#181818;stroke-width:0.5;" width="66" x="657" y="442.45"/><ellipse cx="672" cy="458.45" fill="#ADD1B2" rx="11" ry="11" style="stroke:#181818;stroke-width:1.0;"/><path d="M674.7656,454.325 Q674.9219,454.1062 675.1094,453.9969 Q675.2969,453.8875 675.5156,453.8875 Q675.8906,453.8875 676.125,454.1531 Q676.3594,454.4031 676.3594,455.0125 L676.3594,456.4656 Q676.3594,457.075 676.125,457.3406 Q675.8906,457.6062 675.5156,457.6062 Q675.1719,457.6062 674.9688,457.4031 Q674.7656,457.2156 674.6563,456.7 Q674.6094,456.3406 674.4219,456.1531 Q674.0938,455.7781 673.4844,455.5594 Q672.875,455.3406 672.25,455.3406 Q671.4844,455.3406 670.8438,455.6687 Q670.2188,455.9969 669.7188,456.7469 Q669.2344,457.4969 669.2344,458.5281 L669.2344,459.6219 Q669.2344,460.8562 670.125,461.6844 Q671.0156,462.4969 672.6094,462.4969 Q673.5469,462.4969 674.2031,462.2469 Q674.5938,462.0906 675.0156,461.6531 Q675.2813,461.3875 675.4219,461.3094 Q675.5781,461.2312 675.7813,461.2312 Q676.1094,461.2312 676.3594,461.4969 Q676.625,461.7469 676.625,462.0906 Q676.625,462.4344 676.2813,462.8406 Q675.7813,463.4187 674.9844,463.7469 Q673.9063,464.2 672.6094,464.2 Q671.0938,464.2 669.8906,463.575 Q668.9063,463.075 668.2188,462.0125 Q667.5313,460.9344 667.5313,459.6531 L667.5313,458.4969 Q667.5313,457.1687 668.1406,456.0281 Q668.7656,454.8719 669.8594,454.2625 Q670.9531,453.6375 672.1875,453.6375 Q672.9219,453.6375 673.5625,453.8094 Q674.2188,453.9656 674.7656,454.325 Z " fill="#000000"/><text fill="#000000" font-family="sans-serif" font-size="14" lengthAdjust="spacing" textLength="34" x="686" y="464.1785">Violin</text><line style="stroke:#181818;stroke-width:0.5;" x1="658" x2="722" y1="474.45" y2="474.45"/><line style="stroke:#181818;stroke-width:0.5;" x1="658" x2="722" y1="482.45" y2="482.45"/></g><!--class Viola--><g id="elem_Viola"><rect codeLine="25" fill="#F1F1F1" height="48" id="Viola" rx="2.5" ry="2.5" style="stroke:#181818;stroke-width:0.5;" width="63" x="558.5" y="442.45"/><ellipse cx="573.5" cy="458.45" fill="#ADD1B2" rx="11" ry="11" style="stroke:#181818;stroke-width:1.0;"/><path d="M576.2656,454.325 Q576.4219,454.1062 576.6094,453.9969 Q576.7969,453.8875 577.0156,453.8875 Q577.3906,453.8875 577.625,454.1531 Q577.8594,454.4031 577.8594,455.0125 L577.8594,456.4656 Q577.8594,457.075 577.625,457.3406 Q577.3906,457.6062 577.0156,457.6062 Q576.6719,457.6062 576.4688,457.4031 Q576.2656,457.2156 576.1563,456.7 Q576.1094,456.3406 575.9219,456.1531 Q575.5938,455.7781 574.9844,455.5594 Q574.375,455.3406 573.75,455.3406 Q572.9844,455.3406 572.3438,455.6687 Q571.7188,455.9969 571.2188,456.7469 Q570.7344,457.4969 570.7344,458.5281 L570.7344,459.6219 Q570.7344,460.8562 571.625,461.6844 Q572.5156,462.4969 574.1094,462.4969 Q575.0469,462.4969 575.7031,462.2469 Q576.0938,462.0906 576.5156,461.6531 Q576.7813,461.3875 576.9219,461.3094 Q577.0781,461.2312 577.2813,461.2312 Q577.6094,461.2312 577.8594,461.4969 Q578.125,461.7469 578.125,462.0906 Q578.125,462.4344 577.7813,462.8406 Q577.2813,463.4187 576.4844,463.7469 Q575.4063,464.2 574.1094,464.2 Q572.5938,464.2 571.3906,463.575 Q570.4063,463.075 569.7188,462.0125 Q569.0313,460.9344 569.0313,459.6531 L569.0313,458.4969 Q569.0313,457.1687 569.6406,456.0281 Q570.2656,454.8719 571.3594,454.2625 Q572.4531,453.6375 573.6875,453.6375 Q574.4219,453.6375 575.0625,453.8094 Q575.7188,453.9656 576.2656,454.325 Z " fill="#000000"/><text fill="#000000" font-family="sans-serif" font-size="14" lengthAdjust="spacing" textLength="31" x="587.5" y="464.1785">Viola</text><line style="stroke:#181818;stroke-width:0.5;" x1="559.5" x2="620.5" y1="474.45" y2="474.45"/><line style="stroke:#181818;stroke-width:0.5;" x1="559.5" x2="620.5" y1="482.45" y2="482.45"/></g><!--class Cello--><g id="elem_Cello"><rect codeLine="26" fill="#F1F1F1" height="48" id="Cello" rx="2.5" ry="2.5" style="stroke:#181818;stroke-width:0.5;" width="64" x="459" y="442.45"/><ellipse cx="474" cy="458.45" fill="#ADD1B2" rx="11" ry="11" style="stroke:#181818;stroke-width:1.0;"/><path d="M476.7656,454.325 Q476.9219,454.1062 477.1094,453.9969 Q477.2969,453.8875 477.5156,453.8875 Q477.8906,453.8875 478.125,454.1531 Q478.3594,454.4031 478.3594,455.0125 L478.3594,456.4656 Q478.3594,457.075 478.125,457.3406 Q477.8906,457.6062 477.5156,457.6062 Q477.1719,457.6062 476.9688,457.4031 Q476.7656,457.2156 476.6563,456.7 Q476.6094,456.3406 476.4219,456.1531 Q476.0938,455.7781 475.4844,455.5594 Q474.875,455.3406 474.25,455.3406 Q473.4844,455.3406 472.8438,455.6687 Q472.2188,455.9969 471.7188,456.7469 Q471.2344,457.4969 471.2344,458.5281 L471.2344,459.6219 Q471.2344,460.8562 472.125,461.6844 Q473.0156,462.4969 474.6094,462.4969 Q475.5469,462.4969 476.2031,462.2469 Q476.5938,462.0906 477.0156,461.6531 Q477.2813,461.3875 477.4219,461.3094 Q477.5781,461.2312 477.7813,461.2312 Q478.1094,461.2312 478.3594,461.4969 Q478.625,461.7469 478.625,462.0906 Q478.625,462.4344 478.2813,462.8406 Q477.7813,463.4187 476.9844,463.7469 Q475.9063,464.2 474.6094,464.2 Q473.0938,464.2 471.8906,463.575 Q470.9063,463.075 470.2188,462.0125 Q469.5313,460.9344 469.5313,459.6531 L469.5313,458.4969 Q469.5313,457.1687 470.1406,456.0281 Q470.7656,454.8719 471.8594,454.2625 Q472.9531,453.6375 474.1875,453.6375 Q474.9219,453.6375 475.5625,453.8094 Q476.2188,453.9656 476.7656,454.325 Z " fill="#000000"/><text fill="#000000" font-family="sans-serif" font-size="14" lengthAdjust="spacing" textLength="32" x="488" y="464.1785">Cello</text><line style="stroke:#181818;stroke-width:0.5;" x1="460" x2="522" y1="474.45" y2="474.45"/><line style="stroke:#181818;stroke-width:0.5;" x1="460" x2="522" y1="482.45" y2="482.45"/></g><!--class Bass--><g id="elem_Bass"><rect codeLine="27" fill="#F1F1F1" height="48" id="Bass" rx="2.5" ry="2.5" style="stroke:#181818;stroke-width:0.5;" width="63" x="360.5" y="442.45"/><ellipse cx="375.5" cy="458.45" fill="#ADD1B2" rx="11" ry="11" style="stroke:#181818;stroke-width:1.0;"/><path d="M378.2656,454.325 Q378.4219,454.1062 378.6094,453.9969 Q378.7969,453.8875 379.0156,453.8875 Q379.3906,453.8875 379.625,454.1531 Q379.8594,454.4031 379.8594,455.0125 L379.8594,456.4656 Q379.8594,457.075 379.625,457.3406 Q379.3906,457.6062 379.0156,457.6062 Q378.6719,457.6062 378.4688,457.4031 Q378.2656,457.2156 378.1563,456.7 Q378.1094,456.3406 377.9219,456.1531 Q377.5938,455.7781 376.9844,455.5594 Q376.375,455.3406 375.75,455.3406 Q374.9844,455.3406 374.3438,455.6687 Q373.7188,455.9969 373.2188,456.7469 Q372.7344,457.4969 372.7344,458.5281 L372.7344,459.6219 Q372.7344,460.8562 373.625,461.6844 Q374.5156,462.4969 376.1094,462.4969 Q377.0469,462.4969 377.7031,462.2469 Q378.0938,462.0906 378.5156,461.6531 Q378.7813,461.3875 378.9219,461.3094 Q379.0781,461.2312 379.2813,461.2312 Q379.6094,461.2312 379.8594,461.4969 Q380.125,461.7469 380.125,462.0906 Q380.125,462.4344 379.7813,462.8406 Q379.2813,463.4187 378.4844,463.7469 Q377.4063,464.2 376.1094,464.2 Q374.5938,464.2 373.3906,463.575 Q372.4063,463.075 371.7188,462.0125 Q371.0313,460.9344 371.0313,459.6531 L371.0313,458.4969 Q371.0313,457.1687 371.6406,456.0281 Q372.2656,454.8719 373.3594,454.2625 Q374.4531,453.6375 375.6875,453.6375 Q376.4219,453.6375 377.0625,453.8094 Q377.7188,453.9656 378.2656,454.325 Z " fill="#000000"/><text fill="#000000" font-family="sans-serif" font-size="14" lengthAdjust="spacing" textLength="31" x="389.5" y="464.1785">Bass</text><line style="stroke:#181818;stroke-width:0.5;" x1="361.5" x2="422.5" y1="474.45" y2="474.45"/><line style="stroke:#181818;stroke-width:0.5;" x1="361.5" x2="422.5" y1="482.45" y2="482.45"/></g><!--class Piano--><g id="elem_Piano"><rect codeLine="28" fill="#F1F1F1" height="48" id="Piano" rx="2.5" ry="2.5" style="stroke:#181818;stroke-width:0.5;" width="68" x="258" y="442.45"/><ellipse cx="273" cy="458.45" fill="#ADD1B2" rx="11" ry="11" style="stroke:#181818;stroke-width:1.0;"/><path d="M275.7656,454.325 Q275.9219,454.1062 276.1094,453.9969 Q276.2969,453.8875 276.5156,453.8875 Q276.8906,453.8875 277.125,454.1531 Q277.3594,454.4031 277.3594,455.0125 L277.3594,456.4656 Q277.3594,457.075 277.125,457.3406 Q276.8906,457.6062 276.5156,457.6062 Q276.1719,457.6062 275.9688,457.4031 Q275.7656,457.2156 275.6563,456.7 Q275.6094,456.3406 275.4219,456.1531 Q275.0938,455.7781 274.4844,455.5594 Q273.875,455.3406 273.25,455.3406 Q272.4844,455.3406 271.8438,455.6687 Q271.2188,455.9969 270.7188,456.7469 Q270.2344,457.4969 270.2344,458.5281 L270.2344,459.6219 Q270.2344,460.8562 271.125,461.6844 Q272.0156,462.4969 273.6094,462.4969 Q274.5469,462.4969 275.2031,462.2469 Q275.5938,462.0906 276.0156,461.6531 Q276.2813,461.3875 276.4219,461.3094 Q276.5781,461.2312 276.7813,461.2312 Q277.1094,461.2312 277.3594,461.4969 Q277.625,461.7469 277.625,462.0906 Q277.625,462.4344 277.2813,462.8406 Q276.7813,463.4187 275.9844,463.7469 Q274.9063,464.2 273.6094,464.2 Q272.0938,464.2 270.8906,463.575 Q269.9063,463.075 269.2188,462.0125 Q268.5313,460.9344 268.5313,459.6531 L268.5313,458.4969 Q268.5313,457.1687 269.1406,456.0281 Q269.7656,454.8719 270.8594,454.2625 Q271.9531,453.6375 273.1875,453.6375 Q273.9219,453.6375 274.5625,453.8094 Q275.2188,453.9656 275.7656,454.325 Z " fill="#000000"/><text fill="#000000" font-family="sans-serif" font-size="14" lengthAdjust="spacing" textLength="36" x="287" y="464.1785">Piano</text><line style="stroke:#181818;stroke-width:0.5;" x1="259" x2="325" y1="474.45" y2="474.45"/><line style="stroke:#181818;stroke-width:0.5;" x1="259" x2="325" y1="482.45" y2="482.45"/></g><!--class CellPhone--><g id="elem_CellPhone"><rect codeLine="32" fill="#F1F1F1" height="48" id="CellPhone" rx="2.5" ry="2.5" style="stroke:#181818;stroke-width:0.5;" width="97" x="1160.5" y="442.45"/><ellipse cx="1175.5" cy="458.45" fill="#ADD1B2" rx="11" ry="11" style="stroke:#181818;stroke-width:1.0;"/><path d="M1178.2656,454.325 Q1178.4219,454.1062 1178.6094,453.9969 Q1178.7969,453.8875 1179.0156,453.8875 Q1179.3906,453.8875 1179.625,454.1531 Q1179.8594,454.4031 1179.8594,455.0125 L1179.8594,456.4656 Q1179.8594,457.075 1179.625,457.3406 Q1179.3906,457.6062 1179.0156,457.6062 Q1178.6719,457.6062 1178.4688,457.4031 Q1178.2656,457.2156 1178.1563,456.7 Q1178.1094,456.3406 1177.9219,456.1531 Q1177.5938,455.7781 1176.9844,455.5594 Q1176.375,455.3406 1175.75,455.3406 Q1174.9844,455.3406 1174.3438,455.6687 Q1173.7188,455.9969 1173.2188,456.7469 Q1172.7344,457.4969 1172.7344,458.5281 L1172.7344,459.6219 Q1172.7344,460.8562 1173.625,461.6844 Q1174.5156,462.4969 1176.1094,462.4969 Q1177.0469,462.4969 1177.7031,462.2469 Q1178.0938,462.0906 1178.5156,461.6531 Q1178.7813,461.3875 1178.9219,461.3094 Q1179.0781,461.2312 1179.2813,461.2312 Q1179.6094,461.2312 1179.8594,461.4969 Q1180.125,461.7469 1180.125,462.0906 Q1180.125,462.4344 1179.7813,462.8406 Q1179.2813,463.4187 1178.4844,463.7469 Q1177.4063,464.2 1176.1094,464.2 Q1174.5938,464.2 1173.3906,463.575 Q1172.4063,463.075 1171.7188,462.0125 Q1171.0313,460.9344 1171.0313,459.6531 L1171.0313,458.4969 Q1171.0313,457.1687 1171.6406,456.0281 Q1172.2656,454.8719 1173.3594,454.2625 Q1174.4531,453.6375 1175.6875,453.6375 Q1176.4219,453.6375 1177.0625,453.8094 Q1177.7188,453.9656 1178.2656,454.325 Z " fill="#000000"/><text fill="#000000" font-family="sans-serif" font-size="14" lengthAdjust="spacing" textLength="65" x="1189.5" y="464.1785">CellPhone</text><line style="stroke:#181818;stroke-width:0.5;" x1="1161.5" x2="1256.5" y1="474.45" y2="474.45"/><line style="stroke:#181818;stroke-width:0.5;" x1="1161.5" x2="1256.5" y1="482.45" y2="482.45"/></g><!--class Speaker--><g id="elem_Speaker"><rect codeLine="33" fill="#F1F1F1" height="48" id="Speaker" rx="2.5" ry="2.5" style="stroke:#181818;stroke-width:0.5;" width="85" x="779.5" y="442.45"/><ellipse cx="794.5" cy="458.45" fill="#ADD1B2" rx="11" ry="11" style="stroke:#181818;stroke-width:1.0;"/><path d="M797.2656,454.325 Q797.4219,454.1062 797.6094,453.9969 Q797.7969,453.8875 798.0156,453.8875 Q798.3906,453.8875 798.625,454.1531 Q798.8594,454.4031 798.8594,455.0125 L798.8594,456.4656 Q798.8594,457.075 798.625,457.3406 Q798.3906,457.6062 798.0156,457.6062 Q797.6719,457.6062 797.4688,457.4031 Q797.2656,457.2156 797.1563,456.7 Q797.1094,456.3406 796.9219,456.1531 Q796.5938,455.7781 795.9844,455.5594 Q795.375,455.3406 794.75,455.3406 Q793.9844,455.3406 793.3438,455.6687 Q792.7188,455.9969 792.2188,456.7469 Q791.7344,457.4969 791.7344,458.5281 L791.7344,459.6219 Q791.7344,460.8562 792.625,461.6844 Q793.5156,462.4969 795.1094,462.4969 Q796.0469,462.4969 796.7031,462.2469 Q797.0938,462.0906 797.5156,461.6531 Q797.7813,461.3875 797.9219,461.3094 Q798.0781,461.2312 798.2813,461.2312 Q798.6094,461.2312 798.8594,461.4969 Q799.125,461.7469 799.125,462.0906 Q799.125,462.4344 798.7813,462.8406 Q798.2813,463.4187 797.4844,463.7469 Q796.4063,464.2 795.1094,464.2 Q793.5938,464.2 792.3906,463.575 Q791.4063,463.075 790.7188,462.0125 Q790.0313,460.9344 790.0313,459.6531 L790.0313,458.4969 Q790.0313,457.1687 790.6406,456.0281 Q791.2656,454.8719 792.3594,454.2625 Q793.4531,453.6375 794.6875,453.6375 Q795.4219,453.6375 796.0625,453.8094 Q796.7188,453.9656 797.2656,454.325 Z " fill="#000000"/><text fill="#000000" font-family="sans-serif" font-size="14" lengthAdjust="spacing" textLength="53" x="808.5" y="464.1785">Speaker</text><line style="stroke:#181818;stroke-width:0.5;" x1="780.5" x2="863.5" y1="474.45" y2="474.45"/><line style="stroke:#181818;stroke-width:0.5;" x1="780.5" x2="863.5" y1="482.45" y2="482.45"/></g><!--class Computer--><g id="elem_Computer"><rect codeLine="34" fill="#F1F1F1" height="48" id="Computer" rx="2.5" ry="2.5" style="stroke:#181818;stroke-width:0.5;" width="94" x="1031" y="442.45"/><ellipse cx="1046" cy="458.45" fill="#ADD1B2" rx="11" ry="11" style="stroke:#181818;stroke-width:1.0;"/><path d="M1048.7656,454.325 Q1048.9219,454.1062 1049.1094,453.9969 Q1049.2969,453.8875 1049.5156,453.8875 Q1049.8906,453.8875 1050.125,454.1531 Q1050.3594,454.4031 1050.3594,455.0125 L1050.3594,456.4656 Q1050.3594,457.075 1050.125,457.3406 Q1049.8906,457.6062 1049.5156,457.6062 Q1049.1719,457.6062 1048.9688,457.4031 Q1048.7656,457.2156 1048.6563,456.7 Q1048.6094,456.3406 1048.4219,456.1531 Q1048.0938,455.7781 1047.4844,455.5594 Q1046.875,455.3406 1046.25,455.3406 Q1045.4844,455.3406 1044.8438,455.6687 Q1044.2188,455.9969 1043.7188,456.7469 Q1043.2344,457.4969 1043.2344,458.5281 L1043.2344,459.6219 Q1043.2344,460.8562 1044.125,461.6844 Q1045.0156,462.4969 1046.6094,462.4969 Q1047.5469,462.4969 1048.2031,462.2469 Q1048.5938,462.0906 1049.0156,461.6531 Q1049.2813,461.3875 1049.4219,461.3094 Q1049.5781,461.2312 1049.7813,461.2312 Q1050.1094,461.2312 1050.3594,461.4969 Q1050.625,461.7469 1050.625,462.0906 Q1050.625,462.4344 1050.2813,462.8406 Q1049.7813,463.4187 1048.9844,463.7469 Q1047.9063,464.2 1046.6094,464.2 Q1045.0938,464.2 1043.8906,463.575 Q1042.9063,463.075 1042.2188,462.0125 Q1041.5313,460.9344 1041.5313,459.6531 L1041.5313,458.4969 Q1041.5313,457.1687 1042.1406,456.0281 Q1042.7656,454.8719 1043.8594,454.2625 Q1044.9531,453.6375 1046.1875,453.6375 Q1046.9219,453.6375 1047.5625,453.8094 Q1048.2188,453.9656 1048.7656,454.325 Z " fill="#000000"/><text fill="#000000" font-family="sans-serif" font-size="14" lengthAdjust="spacing" textLength="62" x="1060" y="464.1785">Computer</text><line style="stroke:#181818;stroke-width:0.5;" x1="1032" x2="1124" y1="474.45" y2="474.45"/><line style="stroke:#181818;stroke-width:0.5;" x1="1032" x2="1124" y1="482.45" y2="482.45"/></g><!--class Television--><g id="elem_Television"><rect codeLine="35" fill="#F1F1F1" height="48" id="Television" rx="2.5" ry="2.5" style="stroke:#181818;stroke-width:0.5;" width="96" x="900" y="442.45"/><ellipse cx="915" cy="458.45" fill="#ADD1B2" rx="11" ry="11" style="stroke:#181818;stroke-width:1.0;"/><path d="M917.7656,454.325 Q917.9219,454.1062 918.1094,453.9969 Q918.2969,453.8875 918.5156,453.8875 Q918.8906,453.8875 919.125,454.1531 Q919.3594,454.4031 919.3594,455.0125 L919.3594,456.4656 Q919.3594,457.075 919.125,457.3406 Q918.8906,457.6062 918.5156,457.6062 Q918.1719,457.6062 917.9688,457.4031 Q917.7656,457.2156 917.6563,456.7 Q917.6094,456.3406 917.4219,456.1531 Q917.0938,455.7781 916.4844,455.5594 Q915.875,455.3406 915.25,455.3406 Q914.4844,455.3406 913.8438,455.6687 Q913.2188,455.9969 912.7188,456.7469 Q912.2344,457.4969 912.2344,458.5281 L912.2344,459.6219 Q912.2344,460.8562 913.125,461.6844 Q914.0156,462.4969 915.6094,462.4969 Q916.5469,462.4969 917.2031,462.2469 Q917.5938,462.0906 918.0156,461.6531 Q918.2813,461.3875 918.4219,461.3094 Q918.5781,461.2312 918.7813,461.2312 Q919.1094,461.2312 919.3594,461.4969 Q919.625,461.7469 919.625,462.0906 Q919.625,462.4344 919.2813,462.8406 Q918.7813,463.4187 917.9844,463.7469 Q916.9063,464.2 915.6094,464.2 Q914.0938,464.2 912.8906,463.575 Q911.9063,463.075 911.2188,462.0125 Q910.5313,460.9344 910.5313,459.6531 L910.5313,458.4969 Q910.5313,457.1687 911.1406,456.0281 Q911.7656,454.8719 912.8594,454.2625 Q913.9531,453.6375 915.1875,453.6375 Q915.9219,453.6375 916.5625,453.8094 Q917.2188,453.9656 917.7656,454.325 Z " fill="#000000"/><text fill="#000000" font-family="sans-serif" font-size="14" lengthAdjust="spacing" textLength="64" x="929" y="464.1785">Television</text><line style="stroke:#181818;stroke-width:0.5;" x1="901" x2="995" y1="474.45" y2="474.45"/><line style="stroke:#181818;stroke-width:0.5;" x1="901" x2="995" y1="482.45" y2="482.45"/></g><!--class ElectronicsFactory--><g id="elem_ElectronicsFactory"><rect codeLine="49" fill="#F1F1F1" height="83.2188" id="ElectronicsFactory" rx="2.5" ry="2.5" style="stroke:#181818;stroke-width:0.5;" width="692" x="773" y="611.45"/><ellipse cx="1056.25" cy="627.45" fill="#ADD1B2" rx="11" ry="11" style="stroke:#181818;stroke-width:1.0;"/><path d="M1059.0156,623.325 Q1059.1719,623.1062 1059.3594,622.9969 Q1059.5469,622.8875 1059.7656,622.8875 Q1060.1406,622.8875 1060.375,623.1531 Q1060.6094,623.4031 1060.6094,624.0125 L1060.6094,625.4656 Q1060.6094,626.075 1060.375,626.3406 Q1060.1406,626.6062 1059.7656,626.6062 Q1059.4219,626.6062 1059.2188,626.4031 Q1059.0156,626.2156 1058.9063,625.7 Q1058.8594,625.3406 1058.6719,625.1531 Q1058.3438,624.7781 1057.7344,624.5594 Q1057.125,624.3406 1056.5,624.3406 Q1055.7344,624.3406 1055.0938,624.6687 Q1054.4688,624.9969 1053.9688,625.7469 Q1053.4844,626.4969 1053.4844,627.5281 L1053.4844,628.6219 Q1053.4844,629.8562 1054.375,630.6844 Q1055.2656,631.4969 1056.8594,631.4969 Q1057.7969,631.4969 1058.4531,631.2469 Q1058.8438,631.0906 1059.2656,630.6531 Q1059.5313,630.3875 1059.6719,630.3094 Q1059.8281,630.2312 1060.0313,630.2312 Q1060.3594,630.2312 1060.6094,630.4969 Q1060.875,630.7469 1060.875,631.0906 Q1060.875,631.4344 1060.5313,631.8406 Q1060.0313,632.4187 1059.2344,632.7469 Q1058.1563,633.2 1056.8594,633.2 Q1055.3438,633.2 1054.1406,632.575 Q1053.1563,632.075 1052.4688,631.0125 Q1051.7813,629.9344 1051.7813,628.6531 L1051.7813,627.4969 Q1051.7813,626.1687 1052.3906,625.0281 Q1053.0156,623.8719 1054.1094,623.2625 Q1055.2031,622.6375 1056.4375,622.6375 Q1057.1719,622.6375 1057.8125,622.8094 Q1058.4688,622.9656 1059.0156,623.325 Z " fill="#000000"/><text fill="#000000" font-family="sans-serif" font-size="14" lengthAdjust="spacing" textLength="117" x="1076.75" y="633.1785">ElectronicsFactory</text><line style="stroke:#181818;stroke-width:0.5;" x1="774" x2="1464" y1="643.45" y2="643.45"/><line style="stroke:#181818;stroke-width:0.5;" x1="774" x2="1464" y1="651.45" y2="651.45"/><text fill="#000000" font-family="sans-serif" font-size="14" lengthAdjust="spacing" textLength="132" x="779" y="669.9832">-ElectronicsFactory()</text><text fill="#000000" font-family="sans-serif" font-size="14" lengthAdjust="spacing" text-decoration="underline" textLength="680" x="779" y="687.5926">#createProduct(category : String, itemType : String, itemName : String, manufacturer : String, price : double)</text></g><!--class InstrumentFactory--><g id="elem_InstrumentFactory"><rect codeLine="54" fill="#F1F1F1" height="83.2188" id="InstrumentFactory" rx="2.5" ry="2.5" style="stroke:#181818;stroke-width:0.5;" width="692" x="46" y="611.45"/><ellipse cx="330.75" cy="627.45" fill="#ADD1B2" rx="11" ry="11" style="stroke:#181818;stroke-width:1.0;"/><path d="M333.5156,623.325 Q333.6719,623.1062 333.8594,622.9969 Q334.0469,622.8875 334.2656,622.8875 Q334.6406,622.8875 334.875,623.1531 Q335.1094,623.4031 335.1094,624.0125 L335.1094,625.4656 Q335.1094,626.075 334.875,626.3406 Q334.6406,626.6062 334.2656,626.6062 Q333.9219,626.6062 333.7188,626.4031 Q333.5156,626.2156 333.4063,625.7 Q333.3594,625.3406 333.1719,625.1531 Q332.8438,624.7781 332.2344,624.5594 Q331.625,624.3406 331,624.3406 Q330.2344,624.3406 329.5938,624.6687 Q328.9688,624.9969 328.4688,625.7469 Q327.9844,626.4969 327.9844,627.5281 L327.9844,628.6219 Q327.9844,629.8562 328.875,630.6844 Q329.7656,631.4969 331.3594,631.4969 Q332.2969,631.4969 332.9531,631.2469 Q333.3438,631.0906 333.7656,630.6531 Q334.0313,630.3875 334.1719,630.3094 Q334.3281,630.2312 334.5313,630.2312 Q334.8594,630.2312 335.1094,630.4969 Q335.375,630.7469 335.375,631.0906 Q335.375,631.4344 335.0313,631.8406 Q334.5313,632.4187 333.7344,632.7469 Q332.6563,633.2 331.3594,633.2 Q329.8438,633.2 328.6406,632.575 Q327.6563,632.075 326.9688,631.0125 Q326.2813,629.9344 326.2813,628.6531 L326.2813,627.4969 Q326.2813,626.1687 326.8906,625.0281 Q327.5156,623.8719 328.6094,623.2625 Q329.7031,622.6375 330.9375,622.6375 Q331.6719,622.6375 332.3125,622.8094 Q332.9688,622.9656 333.5156,623.325 Z " fill="#000000"/><text fill="#000000" font-family="sans-serif" font-size="14" lengthAdjust="spacing" textLength="114" x="351.25" y="633.1785">InstrumentFactory</text><line style="stroke:#181818;stroke-width:0.5;" x1="47" x2="737" y1="643.45" y2="643.45"/><line style="stroke:#181818;stroke-width:0.5;" x1="47" x2="737" y1="651.45" y2="651.45"/><text fill="#000000" font-family="sans-serif" font-size="14" lengthAdjust="spacing" textLength="129" x="52" y="669.9832">-InstrumentFactory()</text><text fill="#000000" font-family="sans-serif" font-size="14" lengthAdjust="spacing" text-decoration="underline" textLength="680" x="52" y="687.5926">#createProduct(category : String, itemType : String, itemName : String, manufacturer : String, price : double)</text></g><!--class SuperFactory--><g id="elem_SuperFactory"><rect codeLine="59" fill="#F1F1F1" height="83.2188" id="SuperFactory" rx="2.5" ry="2.5" style="stroke:#181818;stroke-width:0.5;" width="692" x="409" y="815.67"/><ellipse cx="707.75" cy="831.67" fill="#ADD1B2" rx="11" ry="11" style="stroke:#181818;stroke-width:1.0;"/><path d="M710.5156,827.545 Q710.6719,827.3263 710.8594,827.2169 Q711.0469,827.1075 711.2656,827.1075 Q711.6406,827.1075 711.875,827.3731 Q712.1094,827.6231 712.1094,828.2325 L712.1094,829.6856 Q712.1094,830.295 711.875,830.5606 Q711.6406,830.8263 711.2656,830.8263 Q710.9219,830.8263 710.7188,830.6231 Q710.5156,830.4356 710.4063,829.92 Q710.3594,829.5606 710.1719,829.3731 Q709.8438,828.9981 709.2344,828.7794 Q708.625,828.5606 708,828.5606 Q707.2344,828.5606 706.5938,828.8888 Q705.9688,829.2169 705.4688,829.9669 Q704.9844,830.7169 704.9844,831.7481 L704.9844,832.8419 Q704.9844,834.0763 705.875,834.9044 Q706.7656,835.7169 708.3594,835.7169 Q709.2969,835.7169 709.9531,835.4669 Q710.3438,835.3106 710.7656,834.8731 Q711.0313,834.6075 711.1719,834.5294 Q711.3281,834.4513 711.5313,834.4513 Q711.8594,834.4513 712.1094,834.7169 Q712.375,834.9669 712.375,835.3106 Q712.375,835.6544 712.0313,836.0606 Q711.5313,836.6388 710.7344,836.9669 Q709.6563,837.42 708.3594,837.42 Q706.8438,837.42 705.6406,836.795 Q704.6563,836.295 703.9688,835.2325 Q703.2813,834.1544 703.2813,832.8731 L703.2813,831.7169 Q703.2813,830.3888 703.8906,829.2481 Q704.5156,828.0919 705.6094,827.4825 Q706.7031,826.8575 707.9375,826.8575 Q708.6719,826.8575 709.3125,827.0294 Q709.9688,827.1856 710.5156,827.545 Z " fill="#000000"/><text fill="#000000" font-family="sans-serif" font-size="14" lengthAdjust="spacing" textLength="86" x="728.25" y="837.3985">SuperFactory</text><line style="stroke:#181818;stroke-width:0.5;" x1="410" x2="1100" y1="847.67" y2="847.67"/><line style="stroke:#181818;stroke-width:0.5;" x1="410" x2="1100" y1="855.67" y2="855.67"/><text fill="#000000" font-family="sans-serif" font-size="14" lengthAdjust="spacing" textLength="101" x="415" y="874.2032">-SuperFactory()</text><text fill="#000000" font-family="sans-serif" font-size="14" lengthAdjust="spacing" text-decoration="underline" textLength="680" x="415" y="891.8126">+createProduct(category : String, itemType : String, itemName : String, manufacturer : String, price : double)</text></g><!--reverse link AbstractItem to Violin--><g id="link_AbstractItem_Violin"><path codeLine="38" d="M690,400.86 C690,424.03 690,426.97 690,441.96 " fill="none" id="AbstractItem-backto-Violin" style="stroke:#181818;stroke-width:1.0;"/><polygon fill="none" points="690,382.86,684,400.86,696,400.86,690,382.86" style="stroke:#181818;stroke-width:1.0;"/></g><!--reverse link AbstractItem to Viola--><g id="link_AbstractItem_Viola"><path codeLine="39" d="M616.1098,399.5944 C606.9298,422.7644 605.26,426.97 599.31,441.96 " fill="none" id="AbstractItem-backto-Viola" style="stroke:#181818;stroke-width:1.0;"/><polygon fill="none" points="622.74,382.86,610.5317,397.3843,621.6879,401.8045,622.74,382.86" style="stroke:#181818;stroke-width:1.0;"/></g><!--reverse link AbstractItem to Cello--><g id="link_AbstractItem_Cello"><path codeLine="40" d="M542.2486,396.7868 C538.0786,402.1168 545.04,393.23 541,398.45 C529.89,412.79 517.71,429.1 508.15,442.04 " fill="none" id="AbstractItem-backto-Cello" style="stroke:#181818;stroke-width:1.0;"/><polygon fill="none" points="553.34,382.61,537.523,393.0896,546.9742,400.4839,553.34,382.61" style="stroke:#181818;stroke-width:1.0;"/></g><!--reverse link AbstractItem to Bass--><g id="link_AbstractItem_Bass"><path codeLine="41" d="M443.9866,395.121 C438.4866,400.301 446.22,393.19 441,398.45 C427.91,411.65 415.57,428.56 406.55,442.09 " fill="none" id="AbstractItem-backto-Bass" style="stroke:#181818;stroke-width:1.0;"/><polygon fill="none" points="457.09,382.78,439.8729,390.7532,448.1003,399.4888,457.09,382.78" style="stroke:#181818;stroke-width:1.0;"/></g><!--reverse link AbstractItem to Piano--><g id="link_AbstractItem_Piano"><path codeLine="42" d="M348.0408,393.8783 C341.4808,399.0083 349.24,393.14 343,398.45 C328.42,410.87 315.41,428.12 306.17,442.01 " fill="none" id="AbstractItem-backto-Piano" style="stroke:#181818;stroke-width:1.0;"/><polygon fill="none" points="362.22,382.79,344.3447,389.1519,351.7369,398.6047,362.22,382.79" style="stroke:#181818;stroke-width:1.0;"/></g><!--reverse link AbstractItem to CellPhone--><g id="link_AbstractItem_CellPhone"><path codeLine="43" d="M1044.9514,341.6437 C1084.7314,360.9637 1107.54,374.68 1143,398.45 C1160.9,410.45 1177.89,427.89 1190.15,441.97 " fill="none" id="AbstractItem-backto-CellPhone" style="stroke:#181818;stroke-width:1.0;"/><polygon fill="none" points="1028.76,333.78,1042.3302,347.0408,1047.5727,336.2466,1028.76,333.78" style="stroke:#181818;stroke-width:1.0;"/></g><!--reverse link AbstractItem to Speaker--><g id="link_AbstractItem_Speaker"><path codeLine="44" d="M787.1231,398.8097 C799.2431,421.9797 801.86,426.97 809.71,441.96 " fill="none" id="AbstractItem-backto-Speaker" style="stroke:#181818;stroke-width:1.0;"/><polygon fill="none" points="778.78,382.86,781.8066,401.5907,792.4397,396.0286,778.78,382.86" style="stroke:#181818;stroke-width:1.0;"/></g><!--reverse link AbstractItem to Computer--><g id="link_AbstractItem_Computer"><path codeLine="45" d="M1006.7921,393.4479 C1013.8521,398.5979 1006.24,393.2 1013,398.45 C1029.64,411.38 1046.14,428.46 1058.35,442.13 " fill="none" id="AbstractItem-backto-Computer" style="stroke:#181818;stroke-width:1.0;"/><polygon fill="none" points="992.25,382.84,1003.2561,398.2953,1010.3281,388.6005,992.25,382.84" style="stroke:#181818;stroke-width:1.0;"/></g><!--reverse link AbstractItem to Television--><g id="link_AbstractItem_Television"><path codeLine="46" d="M879.0458,395.4991 C884.3758,400.7391 876.81,393.32 882,398.45 C896.51,412.81 912.58,429.12 925.24,442.05 " fill="none" id="AbstractItem-backto-Television" style="stroke:#181818;stroke-width:1.0;"/><polygon fill="none" points="866.21,382.88,874.8395,399.7777,883.2522,391.2205,866.21,382.88" style="stroke:#181818;stroke-width:1.0;"/></g><!--reverse link CellPhone to ElectronicsFactory--><g id="link_CellPhone_ElectronicsFactory"><path codeLine="65" d="M1194.9712,496.2235 C1180.2612,526.4035 1157.05,574.01 1139.03,610.98 " fill="none" id="CellPhone-backto-ElectronicsFactory" style="stroke:#181818;stroke-width:1.0;stroke-dasharray:7.0,7.0;"/><polygon fill="#181818" points="1197.6,490.83,1190.0611,497.1676,1195.4093,495.3245,1197.2524,500.6727,1197.6,490.83" style="stroke:#181818;stroke-width:1.0;"/></g><!--reverse link Computer to ElectronicsFactory--><g id="link_Computer_ElectronicsFactory"><path codeLine="66" d="M1084.4903,496.6874 C1091.1903,526.8674 1101.67,574.01 1109.88,610.98 " fill="none" id="Computer-backto-ElectronicsFactory" style="stroke:#181818;stroke-width:1.0;stroke-dasharray:7.0,7.0;"/><polygon fill="#181818" points="1083.19,490.83,1081.2356,500.483,1084.2736,495.7112,1089.0455,498.7492,1083.19,490.83" style="stroke:#181818;stroke-width:1.0;"/></g><!--reverse link Television to ElectronicsFactory--><g id="link_Television_ElectronicsFactory"><path codeLine="67" d="M973.7369,495.2322 C1001.6869,525.4122 1046.7,574.01 1080.95,610.98 " fill="none" id="Television-backto-ElectronicsFactory" style="stroke:#181818;stroke-width:1.0;stroke-dasharray:7.0,7.0;"/><polygon fill="#181818" points="969.66,490.83,972.8406,500.1512,973.0574,494.4985,978.7101,494.7153,969.66,490.83" style="stroke:#181818;stroke-width:1.0;"/></g><!--reverse link Speaker to ElectronicsFactory--><g id="link_Speaker_ElectronicsFactory"><path codeLine="68" d="M855.6448,494.6353 C865.6148,502.3953 872.24,507.21 883,514.45 C934.95,549.4 996.07,584.89 1043.09,611.08 " fill="none" id="Speaker-backto-ElectronicsFactory" style="stroke:#181818;stroke-width:1.0;stroke-dasharray:7.0,7.0;"/><polygon fill="#181818" points="850.91,490.95,855.5554,499.6345,854.8557,494.0211,860.4691,493.3214,850.91,490.95" style="stroke:#181818;stroke-width:1.0;"/></g><!--reverse link Violin to InstrumentFactory--><g id="link_Violin_InstrumentFactory"><path codeLine="70" d="M662.5146,495.0362 C654.1046,502.9662 648.66,507.46 639,514.45 C588,551.36 526.11,585.83 477.04,611.03 " fill="none" id="Violin-backto-InstrumentFactory" style="stroke:#181818;stroke-width:1.0;stroke-dasharray:7.0,7.0;"/><polygon fill="#181818" points="666.88,490.92,657.5878,494.1841,663.2422,494.3502,663.0761,500.0046,666.88,490.92" style="stroke:#181818;stroke-width:1.0;"/></g><!--reverse link Viola to InstrumentFactory--><g id="link_Viola_InstrumentFactory"><path codeLine="71" d="M561.5834,494.887 C553.6734,502.487 549.15,506.78 541,514.45 C506.26,547.15 466.55,583.79 436.87,611.03 " fill="none" id="Viola-backto-InstrumentFactory" style="stroke:#181818;stroke-width:1.0;stroke-dasharray:7.0,7.0;"/><polygon fill="#181818" points="565.91,490.73,556.6488,494.0811,562.3045,494.1942,562.1915,499.8499,565.91,490.73" style="stroke:#181818;stroke-width:1.0;"/></g><!--reverse link Cello to InstrumentFactory--><g id="link_Cello_InstrumentFactory"><path codeLine="72" d="M475.625,496.118 C459.445,526.298 433.86,574.01 414.03,610.98 " fill="none" id="Cello-backto-InstrumentFactory" style="stroke:#181818;stroke-width:1.0;stroke-dasharray:7.0,7.0;"/><polygon fill="#181818" points="478.46,490.83,470.6822,496.872,476.0975,495.2367,477.7329,500.652,478.46,490.83" style="stroke:#181818;stroke-width:1.0;"/></g><!--reverse link Bass to InstrumentFactory--><g id="link_Bass_InstrumentFactory"><path codeLine="73" d="M392,496.83 C392,527.01 392,574.01 392,610.98 " fill="none" id="Bass-backto-InstrumentFactory" style="stroke:#181818;stroke-width:1.0;stroke-dasharray:7.0,7.0;"/><polygon fill="#181818" points="392,490.83,388,499.83,392,495.83,396,499.83,392,490.83" style="stroke:#181818;stroke-width:1.0;"/></g><!--reverse link Piano to InstrumentFactory--><g id="link_Piano_InstrumentFactory"><path codeLine="74" d="M307.5267,496.1063 C323.8667,526.2863 349.72,574.01 369.75,610.98 " fill="none" id="Piano-backto-InstrumentFactory" style="stroke:#181818;stroke-width:1.0;stroke-dasharray:7.0,7.0;"/><polygon fill="#181818" points="304.67,490.83,305.4375,500.6489,307.0506,495.2269,312.4726,496.84,304.67,490.83" style="stroke:#181818;stroke-width:1.0;"/></g><!--reverse link ElectronicsFactory to SuperFactory--><g id="link_ElectronicsFactory_SuperFactory"><path codeLine="76" d="M1040.0951,697.894 C977.0451,732.924 891.97,780.19 828.86,815.25 " fill="none" id="ElectronicsFactory-backto-SuperFactory" style="stroke:#181818;stroke-width:1.0;"/><polygon fill="#181818" points="1045.34,694.98,1035.53,695.8544,1040.9693,697.4083,1039.4154,702.8476,1045.34,694.98" style="stroke:#181818;stroke-width:1.0;"/></g><!--reverse link InstrumentFactory to SuperFactory--><g id="link_InstrumentFactory_SuperFactory"><path codeLine="77" d="M470.7013,697.9004 C533.5713,732.9304 618.41,780.19 681.34,815.25 " fill="none" id="InstrumentFactory-backto-SuperFactory" style="stroke:#181818;stroke-width:1.0;"/><polygon fill="#181818" points="465.46,694.98,471.3751,702.8548,469.8278,697.4136,475.2689,695.8663,465.46,694.98" style="stroke:#181818;stroke-width:1.0;"/></g><!--SRC=[pLJ1JW8n53ntlwBH2qRMU3Q618qc73Ga6E-bFB5XjzsqNOmY_swxMtPRskLaeXS2CwypxxLlK1l6Ao99YMb1b9fgBTcorZ2ZWY_O5-3hBAi8tP0ru3EceJp3kmoHfTAIKDqUmbFtSsPuV7kBEteoiTKefqJ3MiXFV8CNne2lBMZLNZuhYC1dKePWINZzPlHg2J8WAiceBLs9Ubc0GIxzLaO7syEHCOuyMoXm7EEatnY7RXVMRWtwtfcCBlpMB3DpPcd6UXunocEYjcpfLh2LatZoUenb0ZOvpf7StCxMwFHtgGxmqU3UoIs3ZoDtBThl0RpFK8RwFUBcaUeIk6ws2RLRzCf4mJZUxGE4-C0z58NmWJlxuVsUCyBRWj0H2g1Q2iweyYsjtlnTSF0r5XMGZRaftrUKbGb5WBqOpIrJJF3UBmp2TvwxeOOOaYAQ8LE47JQ5DqCFAJNZfKWtPlAS6pV5zMC75sptouJ0lzo7_iuVMxOXKHuJ8nicTBvJccX6zrI22TLSYbLDzIZwy_Zr6Dj7xTgUTSiPTXtX_wdfHLs13FlreRRLopzijOb7OYFokhgwclYRUgAeMylX6dyzXwkwtSzG_Dokvf3SamNa1EzoFCYtSHwaNQep5Boj8VDyaiXMkYvIp_O_]--></g></svg>